<svg width="100" height="100" viewBox="0 0 100 100" fill="none" xmlns="http://www.w3.org/2000/svg">
<g opacity="0.5">
<path d="M24.2094 77.3281C24.0844 77.3281 23.9562 77.3124 23.8312 77.2812C22.9922 77.0718 22.4828 76.2234 22.6922 75.3874L24.2547 69.1437C24.4625 68.3046 25.3109 67.7921 26.1469 68.0062C26.9859 68.2156 27.4953 69.064 27.2859 69.8999L25.7234 76.1437C25.5469 76.8562 24.9109 77.3281 24.2094 77.3281Z" fill="#CCD1D9"/>
<path d="M42.9469 77.3281C42.2485 77.3281 41.6109 76.8546 41.4328 76.1437L39.8734 69.8999C39.6625 69.064 40.1719 68.2156 41.0094 68.0062C41.8453 67.7921 42.6938 68.3046 42.9047 69.1437L44.4641 75.3874C44.675 76.2234 44.1656 77.0718 43.3281 77.2812C43.2 77.3124 43.0719 77.3281 42.9469 77.3281Z" fill="#CCD1D9"/>
<path d="M71.075 32.0312V77.3281C71.075 79.0469 72.4813 80.4531 74.2 80.4531H96.0906C97.7938 80.4531 99.2156 79.0469 99.2156 77.3281V32.0312H71.075Z" fill="#545C66"/>
<path d="M85.1531 44.5312C86.8719 44.5312 88.2781 45.9375 88.2781 47.6562C88.2781 49.3906 86.8719 50.7812 85.1531 50.7812C83.4203 50.7812 82.0281 49.3906 82.0281 47.6562C82.0281 45.9375 83.4203 44.5312 85.1531 44.5312Z" fill="#5D9CEC"/>
<path d="M99.2156 24.2344V27.3438H71.075V24.2344C71.075 22.5156 72.4813 21.1094 74.2 21.1094H96.0906C97.7938 21.1094 99.2156 22.5156 99.2156 24.2344Z" fill="#545C66"/>
<path d="M71.075 27.3438H99.2156V32.0312H71.075V27.3438Z" fill="#656D78"/>
<path d="M24.2 75.7656H42.95H46.075C47.7938 75.7656 49.2 77.1562 49.2 78.8906V80.4531H17.95V78.8906C17.95 77.1562 19.3563 75.7656 21.075 75.7656H24.2Z" fill="#E6E9ED"/>
<path d="M41.3875 69.5156L42.95 75.7656H24.2L25.7625 69.5156H41.3875Z" fill="#CCD1D9"/>
<path d="M2.42032 63.2656H64.8109V66.3906C64.8109 68.1094 63.4047 69.5156 61.6859 69.5156H55.4203H41.3891H25.7641H5.46564C3.74689 69.5156 2.34064 68.1094 2.34064 66.3906V63.2656H2.42032Z" fill="#E6E9ED"/>
<path d="M64.8109 24.2344V63.2656H2.42032H2.34064V24.2344C2.34064 22.5156 3.74689 21.1094 5.46564 21.1094H61.6844C63.4031 21.1094 64.8109 22.5156 64.8109 24.2344Z" fill="#5D9CEC"/>
<path d="M39.0563 63.2656H31.2438L24.9875 21.1094H32.8L39.0563 63.2656Z" fill="#87BCF4"/>
<path d="M42.1844 63.2656H40.6281L34.3719 21.1094H35.9281L42.1844 63.2656Z" fill="#87BCF4"/>
<path d="M61.6875 71.0844H5.47186C2.88749 71.0844 0.784363 68.9812 0.784363 66.3969V24.2344C0.784363 21.65 2.88749 19.5469 5.47186 19.5469H61.6875C64.2719 19.5469 66.375 21.65 66.375 24.2344V66.3969C66.375 68.9812 64.2734 71.0844 61.6875 71.0844ZM5.47186 22.6719C4.6078 22.6719 3.90936 23.3719 3.90936 24.2344V66.3969C3.90936 67.2594 4.6078 67.9594 5.47186 67.9594H61.6875C62.5484 67.9594 63.25 67.2594 63.25 66.3969V24.2344C63.25 23.3719 62.5484 22.6719 61.6875 22.6719H5.47186Z" fill="#E6E9ED"/>
<path d="M33.6266 68.7407C32.7625 68.7407 32.0547 68.0423 32.0547 67.1782C32.0547 66.3142 32.7469 65.6157 33.6078 65.6157H33.6266C34.4875 65.6157 35.1891 66.3142 35.1891 67.1782C35.1891 68.0423 34.4875 68.7407 33.6266 68.7407Z" fill="#CCD1D9"/>
<path d="M91.4 64.853H78.9C78.0359 64.853 77.3375 64.1546 77.3375 63.2905C77.3375 62.4265 78.0359 61.728 78.9 61.728H91.4C92.264 61.728 92.9625 62.4265 92.9625 63.2905C92.9625 64.1546 92.264 64.853 91.4 64.853Z" fill="#434A54"/>
<path d="M91.4 69.5405H78.9C78.0359 69.5405 77.3375 68.8421 77.3375 67.978C77.3375 67.114 78.0359 66.4155 78.9 66.4155H91.4C92.264 66.4155 92.9625 67.114 92.9625 67.978C92.9625 68.8421 92.264 69.5405 91.4 69.5405Z" fill="#434A54"/>
<path d="M91.4 74.228H78.9C78.0359 74.228 77.3375 73.5296 77.3375 72.6655C77.3375 71.8015 78.0359 71.103 78.9 71.103H91.4C92.264 71.103 92.9625 71.8015 92.9625 72.6655C92.9625 73.5296 92.264 74.228 91.4 74.228Z" fill="#434A54"/>
</g>
</svg>
