<svg width="100" height="100" viewBox="0 0 100 100" fill="none" xmlns="http://www.w3.org/2000/svg">
<g opacity="0.5">
<path d="M18.75 4.6875H81.25V87.5H18.75V4.6875Z" fill="#87CEE9"/>
<path d="M72.0937 65.625C70.2508 70.8377 66.6244 75.2309 61.8556 78.0284C57.0868 80.8259 51.4825 81.8474 46.0333 80.9125C40.5841 79.9776 35.6409 77.1464 32.0773 72.9193C28.5137 68.6922 26.5591 63.3414 26.5591 57.8125C26.5591 52.2837 28.5137 46.9329 32.0773 42.7058C35.6409 38.4787 40.5841 35.6475 46.0333 34.7126C51.4825 33.7777 57.0868 34.7992 61.8556 37.5967C66.6244 40.3942 70.2508 44.7874 72.0937 50V65.625Z" fill="#5F79BA"/>
<path d="M25 87.5H31.25V92.1875C31.25 93.0163 30.9208 93.8112 30.3347 94.3972C29.7487 94.9833 28.9538 95.3125 28.125 95.3125C27.2962 95.3125 26.5013 94.9833 25.9153 94.3972C25.3292 93.8112 25 93.0163 25 92.1875V87.5Z" fill="#195C85"/>
<path d="M68.75 87.5H75V92.1875C75 93.0163 74.6708 93.8112 74.0847 94.3972C73.4987 94.9833 72.7038 95.3125 71.875 95.3125C71.0462 95.3125 70.2513 94.9833 69.6653 94.3972C69.0792 93.8112 68.75 93.0163 68.75 92.1875V87.5Z" fill="#195C85"/>
<path d="M18.75 4.6875H81.25V20.3125H18.75V4.6875Z" fill="#2D75BB"/>
<path d="M37.5 26.5625H28.125L25 20.3125H40.625L37.5 26.5625Z" fill="#F4F4E6"/>
<path d="M45.3125 20.3125H81.25V26.5625H45.3125V20.3125Z" fill="#F4F4E6"/>
<path d="M50 68.75C56.0406 68.75 60.9375 63.8531 60.9375 57.8125C60.9375 51.7719 56.0406 46.875 50 46.875C43.9594 46.875 39.0625 51.7719 39.0625 57.8125C39.0625 63.8531 43.9594 68.75 50 68.75Z" fill="#F4F4E6"/>
<path d="M50 76.5625C45.0288 76.5571 40.2628 74.58 36.7477 71.0648C33.2325 67.5497 31.2554 62.7837 31.25 57.8125H34.375C34.3795 61.9551 36.0272 65.9267 38.9565 68.856C41.8858 71.7853 45.8574 73.433 50 73.4375V76.5625Z" fill="#7A98D3"/>
<path d="M56.25 57.8125H53.125C53.125 56.9837 52.7958 56.1888 52.2097 55.6028C51.6237 55.0167 50.8288 54.6875 50 54.6875V51.5625C51.6576 51.5625 53.2473 52.221 54.4194 53.3931C55.5915 54.5652 56.25 56.1549 56.25 57.8125Z" fill="#4F97D5"/>
<path d="M73.4375 57.8125C73.4414 60.4745 72.9868 63.1173 72.0938 65.625H67.1875V50H72.0938C72.9868 52.5077 73.4414 55.1505 73.4375 57.8125Z" fill="#394D5C"/>
<path d="M67.1875 79.6875H76.5625V82.8125H67.1875V79.6875Z" fill="#F4F4E6"/>
<path d="M23.4375 79.6875H26.5625V82.8125H23.4375V79.6875Z" fill="#F4F4E6"/>
<path d="M65.625 31.25H76.5625V34.375H65.625V31.25Z" fill="#F4F4E6"/>
<path d="M18.75 32.8125H25V39.0625H18.75V32.8125Z" fill="#2D75BB"/>
<path d="M25 32.8125H34.375V35.9375H25V32.8125Z" fill="#F4F4E6"/>
<path d="M23.4375 9.375H39.0625V12.5H23.4375V9.375Z" fill="#DA1C4B"/>
<path d="M73.4375 12.5H76.5625V15.625H73.4375V12.5Z" fill="#7FCAC9"/>
<path d="M67.1875 12.5H70.3125V15.625H67.1875V12.5Z" fill="#7FCAC9"/>
<path d="M60.9375 12.5H64.0625V15.625H60.9375V12.5Z" fill="#7FCAC9"/>
<path d="M54.6875 12.5H57.8125V15.625H54.6875V12.5Z" fill="#7FCAC9"/>
<path d="M48.4375 12.5H51.5625V15.625H48.4375V12.5Z" fill="#7FCAC9"/>
</g>
</svg>
