<svg width="100" height="100" viewBox="0 0 100 100" fill="none" xmlns="http://www.w3.org/2000/svg">
<g clip-path="url(#clip0)">
<path d="M26.2308 92.9902V97.3772C26.2308 98.8262 27.4053 100 28.8539 100H32.3508C33.7994 100 34.9738 98.8262 34.9738 97.3772V92.9902H26.2308Z" fill="#636D77"/>
<path d="M65.0256 92.9902V97.3772C65.0256 98.8262 66.2 100 67.6486 100H71.1455C72.5941 100 73.7685 98.8262 73.7685 97.3772V92.9902H65.0256Z" fill="#636D77"/>
<path opacity="0.15" d="M29.7281 97.3772V92.9902H26.2308V97.3772C26.2308 98.8262 27.4053 100 28.8539 100H32.3508C32.351 100 32.351 100 32.3512 100C30.9025 100 29.7281 98.8262 29.7281 97.3772Z" fill="#020202"/>
<path opacity="0.15" d="M68.5231 97.3772V92.9902H65.0258V97.3772C65.0258 98.8262 66.2002 100 67.6489 100H71.1457C71.1459 100 71.1459 100 71.1461 100C69.6975 100 68.5231 98.8262 68.5231 97.3772Z" fill="#020202"/>
<path d="M38.7731 93.4282H27.8664C24.3176 93.4282 21.441 90.5512 21.441 87.0028V6.4254C21.4408 2.87637 24.3174 0 27.8662 0H72.1334C75.6822 0 78.5588 2.87637 78.5588 6.4254V27.9514V87.0026C78.5588 90.5508 75.6822 93.428 72.1334 93.428H38.7731" fill="#7DE3EA"/>
<path d="M78.5589 6.42539C78.5589 2.87637 75.6823 0 72.1335 0H27.8662C24.3174 0 21.4408 2.87637 21.4408 6.42539V38.1391H78.5591V11.6682" fill="#49D0E2"/>
<g opacity="0.55">
<path opacity="0.55" d="M71.7496 31.9709C70.8443 31.9709 70.1102 31.2371 70.1102 30.3315V7.66094C70.1102 6.75527 70.8441 6.02148 71.7496 6.02148C72.6553 6.02148 73.389 6.75527 73.389 7.66094V30.3317C73.389 31.2369 72.6551 31.9709 71.7496 31.9709Z" fill="#F5F5F5"/>
</g>
<g opacity="0.55">
<path opacity="0.55" d="M71.7496 85.5208C70.8443 85.5208 70.1102 84.787 70.1102 83.8814V82.7806C70.1102 81.8749 70.8441 81.1411 71.7496 81.1411C72.6553 81.1411 73.389 81.8749 73.389 82.7806V83.8814C73.389 84.787 72.6551 85.5208 71.7496 85.5208Z" fill="#F5F5F5"/>
</g>
<g opacity="0.55">
<path opacity="0.55" d="M71.7496 79.1002C70.8443 79.1002 70.1102 78.3664 70.1102 77.4607V45.8397C70.1102 44.934 70.8441 44.2002 71.7496 44.2002C72.6553 44.2002 73.389 44.934 73.389 45.8397V77.4607C73.389 78.3664 72.6551 79.1002 71.7496 79.1002Z" fill="#F5F5F5"/>
</g>
<path d="M21.4408 38.1387V43.6034H24.0449H32.7883H37.16C38.6086 43.6034 39.783 42.429 39.783 40.9803V38.1387H21.4408Z" fill="#A8F2F4"/>
<path d="M29.4468 28.1713C28.5416 28.1713 27.8074 27.4375 27.8074 26.5318V13.0389C27.8074 12.1332 28.5414 11.3994 29.4468 11.3994H32.0699C32.9755 11.3994 33.7093 12.1332 33.7093 13.0389C33.7093 13.9441 32.9755 14.6783 32.0699 14.6783H31.0863V26.532C31.0861 27.4373 30.3521 28.1713 29.4468 28.1713Z" fill="#636D77"/>
<path opacity="0.15" d="M24.9381 87.0028V6.4254C24.9381 2.87637 27.8147 0 31.3637 0H27.8664C24.3176 0 21.441 2.87637 21.441 6.4254V87.003C21.441 90.5513 24.3176 93.4284 27.8664 93.4284H31.3637C27.8147 93.4282 24.9381 90.5513 24.9381 87.0028Z" fill="#020202"/>
</g>
<defs>
<clipPath id="clip0">
<rect width="100" height="100" fill="white"/>
</clipPath>
</defs>
</svg>
