<svg width="100" height="100" viewBox="0 0 100 100" fill="none" xmlns="http://www.w3.org/2000/svg">
<g opacity="0.5">
<path d="M49.9999 24.5208L36.9378 3.47417L39.1625 2.24268L49.9999 19.2722L60.8374 2.24268L63.062 3.47417L49.9999 24.5208Z" fill="#E1E6E9"/>
<path d="M49.9999 17.9038C47.1916 17.9038 44.915 20.1804 44.915 22.9887H55.0845C55.0848 20.1804 52.8082 17.9038 49.9999 17.9038Z" fill="#64798A"/>
<path d="M8.68597 88.5146V96.1861C8.68597 98.2923 10.3935 99.9998 12.4996 99.9998H87.5003C89.6065 99.9998 91.3139 98.2923 91.3139 96.1861V88.5146H8.68597Z" fill="#3A556A"/>
<path d="M95.0034 94.1756H4.99666C3.52387 94.1756 2.32996 92.9817 2.32996 91.5089V28.1975C2.32996 26.7247 3.52387 25.5308 4.99666 25.5308H95.0031C96.4759 25.5308 97.6698 26.7247 97.6698 28.1975V91.5089C97.6698 92.9817 96.4759 94.1756 95.0034 94.1756Z" fill="#64798A"/>
<path d="M72.2449 35.7033V84.0089C72.2449 86.1192 70.5415 87.8226 68.4313 87.8226H12.4986C10.3884 87.8226 8.68494 86.1192 8.68494 84.0089V35.7033C8.68494 33.5933 10.3884 31.8896 12.4986 31.8896H68.4313C70.5415 31.8896 72.2449 33.5933 72.2449 35.7033Z" fill="#EBF0F3"/>
<path d="M46.8226 31.8877H34.1107V87.8211H46.8226V31.8877Z" fill="#27A2DB"/>
<path d="M34.1158 31.8813H21.4039V87.8147H34.1158V31.8813Z" fill="#44C4A1"/>
<path d="M21.3969 31.8896V87.8224H12.4986C10.3884 87.8224 8.68494 86.1189 8.68494 84.0087V35.7033C8.68494 33.5933 10.3884 31.8896 12.4986 31.8896H21.3969Z" fill="#FCD462"/>
<path d="M59.5292 31.8921H46.8173V87.8254H59.5292V31.8921Z" fill="#E56353"/>
<path d="M72.245 35.7033V84.0089C72.245 86.1192 70.5416 87.8226 68.4313 87.8226H59.5328V31.8896H68.4313C70.5416 31.8896 72.245 33.5933 72.245 35.7033Z" fill="#EBF0F3"/>
<path d="M92.5841 45.8866C92.5841 49.5731 89.9655 52.6494 86.4952 53.3614C85.9993 53.463 85.4783 53.5138 84.9571 53.5138C84.4358 53.5138 83.9148 53.463 83.4189 53.3614C79.9484 52.6494 77.3298 49.5731 77.3298 45.8866C77.3298 42.1874 79.9484 39.1239 83.4189 38.412C83.9145 38.3101 84.4358 38.2593 84.9571 38.2593C85.4783 38.2593 85.9993 38.3101 86.4952 38.412C89.9655 39.1239 92.5841 42.1874 92.5841 45.8866Z" fill="#3A556A"/>
<path d="M81.6079 40.8018L90.0419 49.236C89.8196 49.573 89.5542 49.8956 89.2601 50.1899C88.9661 50.4839 88.6434 50.7494 88.3064 50.9717L79.8722 42.5372C80.0945 42.2 80.3597 41.8774 80.6538 41.5833C80.948 41.2893 81.2707 41.0238 81.6079 40.8018Z" fill="#64798A"/>
<path d="M92.588 62.3867H77.3332V64.2934H92.588V62.3867Z" fill="#D5D6DB"/>
<path d="M92.588 68.1069H77.3332V70.0136H92.588V68.1069Z" fill="#D5D6DB"/>
<path d="M92.588 73.8257H77.3332V75.7324H92.588V73.8257Z" fill="#D5D6DB"/>
<path d="M92.588 79.5469H77.3332V81.4536H92.588V79.5469Z" fill="#D5D6DB"/>
<path d="M62.712 25.5304H37.288V24.3835C37.288 22.9107 38.4819 21.7168 39.9547 21.7168H60.0453C61.5181 21.7168 62.712 22.9107 62.712 24.3835V25.5304Z" fill="#3A556A"/>
<path d="M61.7893 5.71992C63.3688 5.71992 64.6492 4.43947 64.6492 2.85996C64.6492 1.28045 63.3688 0 61.7893 0C60.2098 0 58.9293 1.28045 58.9293 2.85996C58.9293 4.43947 60.2098 5.71992 61.7893 5.71992Z" fill="#64798A"/>
<path d="M38.2132 5.71992C39.7927 5.71992 41.0732 4.43947 41.0732 2.85996C41.0732 1.28045 39.7927 0 38.2132 0C36.6337 0 35.3533 1.28045 35.3533 2.85996C35.3533 4.43947 36.6337 5.71992 38.2132 5.71992Z" fill="#64798A"/>
</g>
</svg>
