<svg width="100" height="100" viewBox="0 0 100 100" fill="none" xmlns="http://www.w3.org/2000/svg">
<g opacity="0.5" clip-path="url(#clip0)">
<path d="M86.8814 17.2798H21.2543V81.1294H87.351L89.4365 79.8462V18.9474L86.8814 17.2798Z" fill="#DBEDFF"/>
<path d="M22.541 18.9474L25.083 17.2798H13.1055L10.5635 18.9474V79.8462L12.3678 81.1294H24.3453L22.541 79.8462V18.9474Z" fill="#B5DCFF"/>
<path d="M83.7686 0H50L49.326 0.982031V18.4199L50 18.9475H89.4367V5.66797C89.4365 2.5377 86.899 0 83.7686 0V0Z" fill="#8479C2"/>
<path d="M21.2543 79.8462V95.9517L24.9133 99.9999H69.8758L70.4746 99.4142V92.6737L72.3357 90.5358H88.7594L89.4365 89.923V79.8462H21.2543Z" fill="#8479C2"/>
<path d="M22.541 94.3319V79.8462H10.5635V94.3319C10.5635 97.4622 13.101 99.9999 16.2314 99.9999H28.209C25.0785 99.9999 22.541 97.4622 22.541 94.3319Z" fill="#6E60B8"/>
<path d="M68.852 67.1792L70.6508 57.5212L68.852 49.2046L73.9682 46.5218L74.4322 44.9126C70.9643 38.5085 65.0504 33.6249 57.9447 31.5063H55.4092L46.6566 37.0651L36.043 47.6286L34.5957 63.5521L40.0891 74.8923L52.5086 83.846L57.9447 84.7253C65.0504 82.6067 70.9643 77.7231 74.4322 71.319L73.9682 69.6608L68.852 67.1792Z" fill="#B5DCFF"/>
<path d="M38.1287 58.1157C38.1287 45.544 46.4844 34.9257 57.9447 31.5063C55.4272 30.7558 52.7615 30.3491 50 30.3491C34.6648 30.3491 22.2334 42.7806 22.2334 58.1157C22.2334 73.4509 34.6648 85.8823 50 85.8823C52.7615 85.8823 55.4272 85.4757 57.9447 84.7251C46.4846 81.3058 38.1287 70.6874 38.1287 58.1157Z" fill="#8BCAFF"/>
<path d="M43.5175 0H24.8172L21.2543 3.86602V18.9475H43.5175L44.6447 17.9504V0.998828L43.5175 0Z" fill="#60B9FE"/>
<path d="M28.209 0H16.2314C13.101 0 10.5635 2.5377 10.5635 5.66797V18.9475H22.541V5.66797C22.541 2.5377 25.0785 0 28.209 0V0Z" fill="#1CA8FF"/>
<path d="M68.852 47.3164C65.0986 40.7898 58.0541 36.3857 50 36.3857C49.5125 36.3857 49.0291 36.4035 48.5496 36.4352L47.0088 36.8307L39.7989 44.1412L36.3961 58.6859L36.9953 60.7072H67.1494L68.6219 59.9494C68.9139 56.9807 68.4961 53.9574 67.3684 51.1547C66.774 49.6771 67.4334 48.0043 68.852 47.3164Z" fill="#8BCAFF"/>
<path d="M38.1287 58.1159C38.1287 49.344 42.1976 41.5235 48.5496 36.4351C37.3699 37.1755 28.4756 46.4077 28.2746 57.7245L29.4535 60.7071H38.25C38.1711 59.8538 38.1287 58.9899 38.1287 58.1159Z" fill="#60B9FE"/>
<path d="M67.7332 66.1394L69.3428 60.4302L68.6494 59.606C68.1623 59.7304 67.6522 59.797 67.1264 59.797C65.0526 59.797 63.2195 58.7693 62.107 57.1958C61.7711 56.7206 61.0643 56.7204 60.7283 57.1958C59.6156 58.7695 57.7828 59.797 55.7088 59.797C53.635 59.797 51.802 58.7693 50.6895 57.1958C50.3533 56.7206 49.6465 56.7206 49.3106 57.1958C48.1979 58.7695 46.3651 59.797 44.291 59.797C42.2172 59.797 40.3844 58.7693 39.2717 57.1958C38.9358 56.7206 38.2289 56.7204 37.8928 57.1958C37.4836 57.7745 36.9764 58.2786 36.3961 58.6857L39.8281 70.2642H67.1494L68.7662 69.0585C68.7944 69.0105 68.824 68.9636 68.8518 68.9154L68.5379 67.9755L67.7332 66.1394Z" fill="#1CA8FF"/>
<path d="M38.1287 58.1155C38.1287 57.7284 38.1387 57.3437 38.1545 56.9604C38.0559 57.0187 37.9648 57.094 37.893 57.1956C36.7803 58.7692 34.9475 59.7968 32.8736 59.7968C31.0426 59.7968 29.4 58.9948 28.2746 57.7241C28.2723 57.8544 28.2695 57.9847 28.2695 58.1155C28.2695 62.103 29.3502 65.8423 31.2324 69.0581L32.8236 70.2642H40.9217C39.1334 66.5944 38.1287 62.4726 38.1287 58.1155Z" fill="#0094FD"/>
<path d="M67.1264 69.2829C65.0526 69.2829 63.2196 68.2552 62.1071 66.6817C61.7711 66.2063 61.0643 66.2063 60.7284 66.6817C59.6157 68.2554 57.7829 69.2829 55.7088 69.2829C53.635 69.2829 51.802 68.2552 50.6895 66.6817C50.3534 66.2063 49.6465 66.2063 49.3106 66.6817C48.1979 68.2552 46.3651 69.2829 44.2911 69.2829C42.2172 69.2829 40.3844 68.2552 39.2717 66.6817C39.1213 66.4688 38.8959 66.3567 38.6633 66.3345L40.9217 73.9532L46.7573 78.9919L48.5508 79.798C49.0299 79.8296 49.5129 79.8464 49.9999 79.8464C57.9944 79.8464 64.9926 75.5058 68.7663 69.0589C68.244 69.2032 67.6948 69.2829 67.1264 69.2829Z" fill="#60B9FE"/>
<path d="M39.6272 67.1335C39.5026 66.9882 39.3827 66.8386 39.2719 66.6817C38.936 66.2063 38.2292 66.2063 37.893 66.6817C36.7803 68.2554 34.9475 69.2829 32.8737 69.2829C32.3049 69.2829 31.7551 69.203 31.2325 69.0585C34.7764 75.1132 41.1649 79.3093 48.551 79.798C44.4842 76.5405 41.3536 72.1636 39.6272 67.1335Z" fill="#1CA8FF"/>
<path d="M62.9214 13.1289C64.9402 13.1289 66.5767 11.4924 66.5767 9.47363C66.5767 7.45488 64.9402 5.81836 62.9214 5.81836C60.9027 5.81836 59.2662 7.45488 59.2662 9.47363C59.2662 11.4924 60.9027 13.1289 62.9214 13.1289Z" fill="#DBEDFF"/>
<path d="M75.8604 13.1289C77.8791 13.1289 79.5156 11.4924 79.5156 9.47363C79.5156 7.45488 77.8791 5.81836 75.8604 5.81836C73.8416 5.81836 72.2051 7.45488 72.2051 9.47363C72.2051 11.4924 73.8416 13.1289 75.8604 13.1289Z" fill="#DBEDFF"/>
<path d="M43.5176 0H50V18.9475H43.5176V0Z" fill="#8BCAFF"/>
<path d="M80.981 89.9229L79.0764 91.567V99.2381L79.6562 99.9998H83.7687C86.899 99.9998 89.4367 97.4621 89.4367 94.3318V89.9229H80.981Z" fill="#AEA7D7"/>
<path d="M82.5991 89.9229H72.8186C71.1934 89.9229 69.8759 91.2404 69.8759 92.8656V99.9998H79.6563V92.8656C79.6563 91.2404 80.9739 89.9229 82.5991 89.9229Z" fill="#9790CC"/>
<path d="M78.5166 46.5046C77.8795 44.9407 76.0819 44.2048 74.5311 44.8704L73.3449 45.3796L72.0592 46.6225L71.6569 49.2048V69.2081L73.3449 70.8522L74.5311 71.3614C76.0838 72.0278 77.8801 71.2897 78.5166 69.7272C81.5404 62.3079 81.5465 53.9386 78.5166 46.5046Z" fill="#8479C2"/>
<path d="M72.8644 67.0934C75.1795 61.3397 75.1744 54.8805 72.8644 49.1391C72.3429 47.8432 72.5719 46.4313 73.3449 45.3799L68.9777 47.2549C67.4711 47.9018 66.7564 49.6334 67.3685 51.1547C69.1599 55.607 69.1636 60.6158 67.3685 65.0777C66.7564 66.599 67.4711 68.3307 68.9777 68.9776L73.3449 70.8526C72.5719 69.8012 72.3429 68.3893 72.8644 67.0934Z" fill="#6E60B8"/>
</g>
<defs>
<clipPath id="clip0">
<rect width="100" height="100" fill="white"/>
</clipPath>
</defs>
</svg>
