<svg width="58" height="58" viewBox="0 0 58 58" fill="none" xmlns="http://www.w3.org/2000/svg">
<g clip-path="url(#clip0)">
<path d="M39.8797 43.5046H18.1363V41.6927C18.1017 38.7673 16.9087 35.9755 14.8189 33.9282C7.09864 26.1017 7.17341 13.5026 14.9852 5.76769C22.7975 -1.96673 35.3967 -1.91586 43.1462 5.88138C50.8952 13.6791 50.8682 26.2787 43.0851 34.0423C41.0352 36.06 39.8806 38.8159 39.8797 41.6927V43.5046Z" fill="#FFCB5A"/>
<path d="M19.9482 47.1279H38.0677C39.0688 47.1279 39.8797 47.9388 39.8797 48.9399C39.8797 49.9405 39.0688 50.7518 38.0677 50.7518H19.9482C18.9476 50.7518 18.1363 49.9405 18.1363 48.9399C18.1363 47.9388 18.9476 47.1279 19.9482 47.1279Z" fill="#62808C"/>
<path d="M23.5721 54.376H34.4438C35.4449 54.376 36.2558 55.1868 36.2558 56.1879C36.2558 57.1886 35.4449 57.9999 34.4438 57.9999H23.5721C22.5715 57.9999 21.7601 57.1886 21.7601 56.1879C21.7601 55.1868 22.5715 54.376 23.5721 54.376Z" fill="#62808C"/>
<path d="M16.3243 18.1377H19.9482V21.7616H16.3243V18.1377Z" fill="white"/>
<path d="M23.5721 21.7616H27.196V43.505H30.8199V21.7616H34.4438V18.1377H23.5721V21.7616Z" fill="white"/>
<path d="M38.0677 18.1377H41.6916V21.7616H38.0677V18.1377Z" fill="white"/>
</g>
<defs>
<clipPath id="clip0">
<rect width="58" height="58" fill="white"/>
</clipPath>
</defs>
</svg>
