<svg width="49" height="49" viewBox="0 0 49 49" fill="none" xmlns="http://www.w3.org/2000/svg">
<path d="M35.3288 17.5085L34.6116 19.6442C33.7974 22.0691 31.1476 23.3876 28.7217 22.5734L26.9822 21.9889L14.8268 17.9097C12.401 17.0955 11.0834 14.4447 11.8967 12.0198L12.6139 9.88407C13.1073 8.41407 14.2751 7.35119 15.6579 6.92321C16.5573 6.64385 17.548 6.63294 18.5039 6.95393L32.3997 11.6186C34.8247 12.4327 36.1431 15.0826 35.3288 17.5085Z" fill="#78B9EB"/>
<path d="M27.9354 21.1678L26.9825 21.989L14.8271 17.9099C12.4012 17.0956 11.0837 14.4448 11.8969 12.0199L12.6141 9.8842C13.1075 8.4142 14.2754 7.35132 15.6582 6.92334L27.9354 21.1678Z" fill="#5AAAE7"/>
<path d="M25.4201 22.302L17.3123 29.2905L16.0878 30.3454L1.146 13.0113L2.37138 11.9553L10.4792 4.9668L25.4201 22.302Z" fill="#C70024"/>
<path d="M25.4203 22.302L17.3125 29.2905L2.37158 11.9553L10.4795 4.9668L25.4203 22.302Z" fill="#FF0C38"/>
<path d="M11.3332 6.02661L2.06839 14.0117C1.59983 14.4149 0.885594 14.3624 0.481439 13.8938L0.271467 13.6501C-0.132688 13.1816 -0.0791896 12.4673 0.389373 12.0632L1.12236 11.4312L9.65324 4.0781C10.1178 3.67787 10.8211 3.72543 11.2273 4.18107C11.2323 4.18605 11.2372 4.19103 11.2412 4.19591L11.4502 4.43957C11.8542 4.90832 11.8018 5.62246 11.3332 6.02661Z" fill="#A5001E"/>
<path d="M11.2272 4.18107L2.69539 11.5341C2.2318 11.9344 1.52848 11.8857 1.12231 11.4312L9.65319 4.0781C10.1178 3.67787 10.8212 3.72543 11.2272 4.18107Z" fill="#C70024"/>
<path d="M12.3483 20.9667C14.7566 20.9667 16.7088 19.0144 16.7088 16.6061C16.7088 14.1979 14.7566 12.2456 12.3483 12.2456C9.94007 12.2456 7.98779 14.1979 7.98779 16.6061C7.98779 19.0144 9.94007 20.9667 12.3483 20.9667Z" fill="#A5001E"/>
<path d="M15.4244 16.3673L14.6772 15.7794L14.9238 14.766C15.0209 14.3674 14.7764 13.9655 14.3778 13.8684C13.979 13.7713 13.5773 14.0159 13.4802 14.4145L13.3138 15.0978C13.0326 15.03 12.6996 14.978 12.3365 14.978C11.3814 14.978 10.0574 15.3363 9.1742 17.0435C9.00633 17.368 9.09926 17.7666 9.39364 17.9833C9.48715 18.0521 10.3395 18.6557 11.4515 18.6557C12.2033 18.6557 13.211 18.378 14.0525 17.1786L14.5056 17.5351C14.6418 17.6423 14.8036 17.6942 14.9644 17.6942C15.1844 17.6942 15.4023 17.5969 15.5488 17.4106C15.8026 17.088 15.7469 16.6209 15.4244 16.3673ZM11.4515 17.1696C11.2642 17.1696 11.0848 17.1362 10.9251 17.0891C11.3051 16.6696 11.7717 16.4638 12.3365 16.4638C12.4666 16.4638 12.592 16.4748 12.7096 16.4924C12.3429 16.9424 11.9218 17.1696 11.4515 17.1696Z" fill="#FFCD00"/>
<path d="M45.349 6.5796L35.1401 2.2809C34.2665 1.91311 33.2602 2.3232 32.8924 3.19678L31.4731 6.56811C31.4627 6.57319 31.4623 6.57338 31.4728 6.5683L27.298 9.90337C27.1556 10.0171 27.0216 10.1412 26.8989 10.2735C26.5972 10.596 26.3535 10.9706 26.181 11.3803L22.7701 19.4823C22.2269 20.7727 22.8323 22.2585 24.1227 22.8019L26.5278 23.8144L26.5277 23.8146L38.3476 28.7907C39.6381 29.3339 41.1246 28.7283 41.6678 27.4378L45.0815 19.3295C45.3228 18.7559 45.4181 18.1314 45.3583 17.5121L44.8459 12.1983L46.265 8.82747C46.6327 7.95361 46.2226 6.94729 45.349 6.5796Z" fill="#FF728B"/>
<path d="M38.3477 28.7904L26.5278 23.8144L30.9222 13.3762C31.1655 12.7984 31.5496 12.2906 32.0394 11.8993L36.2146 8.56396L44.8458 12.1977L45.3582 17.5117C45.4179 18.1311 45.3228 18.7557 45.0813 19.3291L41.6677 27.4375C41.1248 28.7279 39.6382 29.3337 38.3477 28.7904Z" fill="#FF3F62"/>
<path d="M44.8458 12.1978L40.7461 15.5894C40.6126 15.7001 40.4879 15.8186 40.3727 15.9454C40.0816 16.2614 39.8469 16.6268 39.6791 17.0254L35.2715 27.495L24.1229 22.8014C22.8325 22.2582 22.2271 20.7722 22.7703 19.4819L26.1813 11.3798C26.3537 10.9701 26.5974 10.5955 26.8992 10.273C27.0218 10.1407 27.1558 10.0165 27.2982 9.90293L31.473 6.56787L44.8458 12.1978Z" fill="#FF728B"/>
<path d="M40.3728 15.9454C40.0817 16.2613 39.847 16.6267 39.6791 17.0254L37.5874 21.9939L24.1028 16.3169L26.1814 11.3798C26.3538 10.9701 26.5975 10.5955 26.8992 10.2729L40.3728 15.9454Z" fill="#FFA5B5"/>
<path d="M45.3585 17.5112L44.8453 12.1978L40.7464 15.5895C40.6127 15.7004 40.4879 15.8183 40.3729 15.9451C40.0817 16.2611 39.847 16.6266 39.6785 17.0258L35.2715 27.4952L38.3472 28.7899C39.6379 29.3337 41.1248 28.7275 41.6676 27.4378L45.0812 19.329C45.3228 18.7554 45.4179 18.1313 45.3585 17.5112Z" fill="#FF0C38"/>
<path d="M32.9833 16.5562C33.0176 17.4167 32.1699 18.061 31.3619 17.7629C31.3434 17.7561 31.3251 17.7489 31.3067 17.7411C31.2884 17.7334 31.2703 17.7253 31.2526 17.7168C30.4747 17.3472 30.3431 16.2906 30.9825 15.7137L32.4024 14.4329C32.5927 14.2612 32.8968 14.3893 32.9071 14.6453L32.9833 16.5562Z" fill="#FF3F62"/>
<path d="M34.1889 7.71056L34.1454 7.8166L29.9702 11.1519C29.8276 11.2657 29.6938 11.3896 29.571 11.5223C29.2698 11.8443 29.0261 12.2197 28.8538 12.6288L24.5378 22.9754L24.1227 22.801C22.833 22.2582 22.2267 20.7723 22.7706 19.4816L26.1812 11.3796C26.3535 10.9705 26.5972 10.5961 26.8993 10.2731C27.0221 10.1404 27.1559 10.0165 27.2985 9.90264L31.4728 6.56834C31.4728 6.56738 31.4738 6.56738 31.4738 6.56738L34.1889 7.71056Z" fill="#FF3F62"/>
<path d="M29.6559 11.4339C29.6262 11.4626 29.5985 11.4924 29.5708 11.5221C29.2696 11.844 29.0259 12.2195 28.8536 12.6286L26.8358 17.4666L24.1028 16.3165L26.181 11.3795C26.3533 10.9703 26.597 10.5959 26.8991 10.2729L29.6559 11.4339Z" fill="#FF728B"/>
<path d="M44.8459 12.1982L31.4734 6.56763L32.8927 3.19629C33.2605 2.32271 34.2668 1.91262 35.1403 2.28041L45.3492 6.57911C46.2228 6.9469 46.6329 7.95322 46.2651 8.82679L44.8459 12.1982Z" fill="#FF3F62"/>
<path d="M36.2267 2.7379L34.1891 7.71063L31.4739 6.56746L32.8924 3.19651C33.2608 2.32283 34.2674 1.91274 35.141 2.28024L36.2267 2.7379Z" fill="#FF0C38"/>
<path d="M46.3503 22.7891L39.2706 44.5541C38.9685 45.4822 38.1037 46.1112 37.1271 46.1112H11.9891C11.0164 46.1112 10.1535 45.4872 9.8485 44.5639L2.6499 22.7891H46.3503Z" fill="#7ED63E"/>
<path d="M46.35 22.7891L39.2704 44.5541C38.9683 45.4822 38.1035 46.1112 37.1268 46.1112H16.2296C15.2569 46.1112 14.394 45.4872 14.089 44.5639L6.89136 22.7891H46.35Z" fill="#A4E276"/>
<path d="M46.9509 22.3526C46.8112 22.1603 46.5876 22.0464 46.3498 22.0464H6.93132C6.52104 22.0464 6.18837 22.3791 6.18837 22.7893C6.18837 23.1996 6.52104 23.5323 6.93132 23.5323H45.3269L42.649 31.7655H38.2573L39.458 26.1243C39.5434 25.7229 39.2874 25.3283 38.8861 25.243C38.4849 25.1574 38.0902 25.4135 38.0048 25.8149L36.7383 31.7655H31.7332L32.2405 26.035C32.2767 25.6263 31.9747 25.2656 31.5659 25.2295C31.1582 25.1931 30.7965 25.4952 30.7603 25.9041L30.2414 31.7655H25.243V25.9695C25.243 25.5593 24.9103 25.2266 24.5 25.2266C24.0897 25.2266 23.7571 25.5593 23.7571 25.9695V31.7655H18.9241L18.4052 25.9041C18.369 25.4953 18.0074 25.1939 17.5996 25.2295C17.1909 25.2656 16.8889 25.6263 16.925 26.035L17.4323 31.7655H16.5235C16.1132 31.7655 15.7805 32.0982 15.7805 32.5085C15.7805 32.9187 16.1132 33.2514 16.5235 33.2514H17.5638L18.0317 38.5368H13.8685L12.7435 33.2514H13.5518C13.9621 33.2514 14.2947 32.9187 14.2947 32.5085C14.2947 32.0982 13.9621 31.7655 13.5518 31.7655H12.4273L11.1607 25.8149C11.0753 25.4136 10.6811 25.157 10.2794 25.243C9.87811 25.3283 9.62201 25.7229 9.70747 26.1243L10.9082 31.7655H6.39997L3.67837 23.5323H3.95964C4.36992 23.5323 4.70258 23.1996 4.70258 22.7893C4.70258 22.3791 4.36992 22.0464 3.95964 22.0464H2.65042C2.41193 22.0464 2.18798 22.1609 2.04826 22.3542C1.90863 22.5475 1.87015 22.796 1.94499 23.0225L9.14292 44.7978C9.54956 46.0279 10.6932 46.8545 11.9888 46.8545H14.7188C14.7194 46.8545 14.7198 46.8546 14.7205 46.8546C14.7214 46.8546 14.7224 46.8545 14.7233 46.8545H19.4463C19.4466 46.8545 19.447 46.8545 19.4473 46.8545C19.4477 46.8545 19.4479 46.8545 19.4483 46.8545H29.7171C29.7175 46.8545 29.7178 46.8545 29.7181 46.8545C29.7184 46.8545 29.7188 46.8545 29.7191 46.8545H34.4421C34.443 46.8545 34.4441 46.8546 34.4449 46.8546C34.4455 46.8546 34.446 46.8545 34.4466 46.8545H37.1267C38.4288 46.8545 39.5743 46.0225 39.9771 44.7842L42.1826 38.0033C42.3095 37.6131 42.096 37.1939 41.7058 37.067C41.3155 36.9402 40.8966 37.1536 40.7696 37.5438L40.4466 38.537H36.8162L37.9411 33.2516H42.1658L41.6889 34.7178C41.562 35.108 41.7755 35.5271 42.1657 35.654C42.242 35.6788 42.3194 35.6907 42.3956 35.6907C42.7087 35.6907 42.9998 35.4911 43.1019 35.1773L47.0563 23.0193C47.1299 22.7929 47.0907 22.5452 46.9509 22.3526ZM30.1099 33.2514L29.6421 38.5368H25.243V33.2514H30.1099ZM30.5289 45.3685L31.0021 40.0227H34.9807L33.8428 45.3685H30.5289ZM29.0373 45.3685H25.243V40.0227H29.5105L29.0373 45.3685ZM20.1282 45.3685L19.6551 40.0227H23.7573V45.3685H20.1282ZM19.0556 33.2514H23.7572V38.5368H19.5236L19.0556 33.2514ZM18.1634 40.0227L18.6366 45.3685H15.3226L14.1848 40.0227H18.1634ZM11.2244 33.2514L12.3494 38.5368H8.63828L6.89122 33.2514H11.2244ZM10.5537 44.3313L9.12943 40.0226H12.6657L13.8036 45.3684H11.9888C11.3355 45.3685 10.7588 44.9517 10.5537 44.3313ZM39.9634 40.0227L38.5643 44.3245C38.3612 44.9489 37.7836 45.3684 37.1269 45.3684H35.3622L36.5001 40.0226H39.9634V40.0227ZM35.2971 38.5368H31.1338L31.6017 33.2514H36.4221L35.2971 38.5368Z" fill="#5EAC24"/>
<path d="M49 22.7891C49 23.6638 48.6424 24.4592 48.0658 25.0348C47.4893 25.6113 46.6939 25.9689 45.8192 25.9689H3.18079C1.43143 25.9689 0 24.5385 0 22.7892C0 21.9145 0.357643 21.1191 0.934158 20.5426C1.51067 19.966 2.30606 19.6084 3.18079 19.6084H45.8192C47.5091 19.6084 48.9029 20.9447 48.995 22.6118C48.998 22.6702 49 22.7297 49 22.7891Z" fill="#4E901E"/>
<path d="M48.9951 22.6119H6.35664C4.66672 22.6119 3.27395 21.2755 3.18188 19.6084H45.8194C47.5092 19.6084 48.9029 20.9447 48.9951 22.6119Z" fill="#5EAC24"/>
<path d="M26.6574 6.53197V21.6334C26.6574 22.193 26.4415 22.7042 26.0888 23.0885C25.6936 23.5194 25.127 23.7909 24.5 23.7909C23.3132 23.7909 22.3425 22.8201 22.3425 21.6334V6.53197C22.3425 5.34621 23.3133 4.37549 24.5 4.37549C25.0933 4.37549 25.6332 4.61819 26.0235 5.00943C26.0453 5.03125 26.067 5.05402 26.0888 5.07776C26.4415 5.46115 26.6574 5.97335 26.6574 6.53197Z" fill="#47821C"/>
<path d="M26.6575 6.53185V21.6332C26.6575 22.1929 26.4416 22.704 26.0889 23.0884C25.7353 22.704 25.5193 22.1929 25.5193 21.6332V6.53185C25.5193 5.97313 25.7352 5.46102 26.0889 5.07764C26.4416 5.46102 26.6575 5.97323 26.6575 6.53185Z" fill="#4E901E"/>
<path d="M24.4999 22.3333C24.8537 22.3333 25.1405 22.0465 25.1405 21.6928C25.1405 21.339 24.8537 21.0522 24.4999 21.0522C24.1462 21.0522 23.8594 21.339 23.8594 21.6928C23.8594 22.0465 24.1462 22.3333 24.4999 22.3333Z" fill="#A4E276"/>
</svg>
