<svg width="62" height="105" viewBox="0 0 62 105" fill="none" xmlns="http://www.w3.org/2000/svg">
<path d="M22.8608 7.95161V17.8911H18.885V7.95161C18.885 3.56717 22.4522 0 26.8366 0H51.6854C56.0699 0 59.637 3.56717 59.637 7.95161V61.625V63.6129H55.6612V61.625V7.95161C55.6612 5.75896 53.8781 3.97581 51.6854 3.97581H26.8366C24.644 3.97581 22.8608 5.75896 22.8608 7.95161Z" fill="#5A9DB3"/>
<path d="M1.9879 27.8305H41.746C42.8439 27.8305 43.7339 26.9406 43.7339 25.8426V21.8668C43.7339 20.7689 42.8439 19.8789 41.746 19.8789H1.9879C0.889959 19.8789 0 20.7689 0 21.8668V25.8426C0 26.9406 0.889959 27.8305 1.9879 27.8305Z" fill="#5A9DB3"/>
<path d="M1.98779 27.8306H41.7459C41.7459 28.9285 40.8559 29.8185 39.758 29.8185H3.9757C2.87775 29.8185 1.98779 28.9285 1.98779 27.8306Z" fill="#566E7F"/>
<path d="M30.6203 35.1944C30.2456 34.6839 29.3914 34.6839 29.0168 35.1944C28.6527 35.6914 26.8367 38.2491 26.8367 39.8487C26.8367 41.4435 28.1743 42.7402 29.8185 42.7402C31.4628 42.7402 32.8004 41.4434 32.8004 39.8487C32.8004 38.2491 30.9843 35.6914 30.6203 35.1944Z" fill="#50BEE7"/>
<path d="M30.6203 35.1943C30.4942 35.0225 30.3082 34.9302 30.1101 34.874C30.774 35.8751 31.8065 37.625 31.8065 38.8318C31.8065 40.4266 30.4689 41.7233 28.8246 41.7233C28.2403 41.7233 27.6989 41.5535 27.2383 41.2709C27.7522 42.1438 28.71 42.7402 29.8186 42.7402C31.4628 42.7402 32.8004 41.4433 32.8004 39.8486C32.8004 38.249 30.9844 35.6913 30.6203 35.1943Z" fill="#00ACDD"/>
<path d="M22.6686 35.1715C22.2939 34.6609 21.4397 34.6609 21.0651 35.1715C20.7011 35.6684 18.885 38.2261 18.885 39.8258C18.885 41.4206 20.2226 42.7173 21.8669 42.7173C23.5111 42.7173 24.8487 41.4204 24.8487 39.8258C24.8487 38.2261 23.0326 35.6684 22.6686 35.1715Z" fill="#50BEE7"/>
<path d="M22.6687 35.1714C22.5426 34.9995 22.3566 34.9072 22.1584 34.8511C22.8224 35.8522 23.8548 37.6021 23.8548 38.8089C23.8548 40.4037 22.5172 41.7004 20.873 41.7004C20.2886 41.7004 19.7472 41.5306 19.2866 41.2479C19.8005 42.1207 20.7583 42.7171 21.8669 42.7171C23.5112 42.7171 24.8488 41.4202 24.8488 39.8256C24.8488 38.226 23.0327 35.6684 22.6687 35.1714Z" fill="#00ACDD"/>
<path d="M14.717 35.1715C14.3422 34.6609 13.4881 34.6609 13.1135 35.1715C12.7494 35.6684 10.9333 38.2261 10.9333 39.8258C10.9333 41.4206 12.271 42.7173 13.9152 42.7173C15.5594 42.7173 16.8971 41.4204 16.8971 39.8258C16.8971 38.2261 15.081 35.6684 14.717 35.1715Z" fill="#50BEE7"/>
<path d="M14.717 35.1714C14.5909 34.9995 14.4049 34.9072 14.2067 34.8511C14.8707 35.8522 15.9032 37.6021 15.9032 38.8089C15.9032 40.4037 14.5655 41.7004 12.9213 41.7004C12.337 41.7004 11.7955 41.5306 11.335 41.2479C11.8488 42.1207 12.8066 42.7171 13.9153 42.7171C15.5595 42.7171 16.8971 41.4202 16.8971 39.8256C16.8971 38.226 15.081 35.6684 14.717 35.1714Z" fill="#00ACDD"/>
<path d="M30.6203 56.0675C30.2456 55.5569 29.3914 55.5569 29.0168 56.0675C28.6527 56.5644 26.8367 59.1221 26.8367 60.7218C26.8367 62.3166 28.1743 63.6133 29.8185 63.6133C31.4628 63.6133 32.8004 62.3164 32.8004 60.7218C32.8004 59.1221 30.9843 56.5644 30.6203 56.0675Z" fill="#50BEE7"/>
<path d="M30.6203 56.0669C30.4942 55.8951 30.3082 55.8027 30.1101 55.7466C30.774 56.7476 31.8065 58.4976 31.8065 59.7044C31.8065 61.2992 30.4689 62.5959 28.8246 62.5959C28.2403 62.5959 27.6989 62.4261 27.2383 62.1434C27.7522 63.0163 28.71 63.6127 29.8186 63.6127C31.4628 63.6127 32.8004 62.3159 32.8004 60.7212C32.8004 59.1215 30.9844 56.5639 30.6203 56.0669Z" fill="#00ACDD"/>
<path d="M22.6686 56.0445C22.2939 55.534 21.4397 55.534 21.0651 56.0445C20.7011 56.5415 18.885 59.0992 18.885 60.6988C18.885 62.2936 20.2226 63.5903 21.8669 63.5903C23.5111 63.5903 24.8487 62.2935 24.8487 60.6988C24.8487 59.0992 23.0326 56.5415 22.6686 56.0445Z" fill="#50BEE7"/>
<path d="M22.6687 56.0439C22.5426 55.8721 22.3566 55.7798 22.1584 55.7236C22.8224 56.7248 23.8548 58.4746 23.8548 59.6814C23.8548 61.2762 22.5172 62.573 20.873 62.573C20.2886 62.573 19.7472 62.4031 19.2866 62.1205C19.8005 62.9933 20.7583 63.5896 21.8669 63.5896C23.5112 63.5896 24.8488 62.2928 24.8488 60.6981C24.8488 59.0986 23.0327 56.5409 22.6687 56.0439Z" fill="#00ACDD"/>
<path d="M14.717 56.0445C14.3422 55.534 13.4881 55.534 13.1135 56.0445C12.7494 56.5415 10.9333 59.0992 10.9333 60.6988C10.9333 62.2936 12.271 63.5903 13.9152 63.5903C15.5594 63.5903 16.8971 62.2935 16.8971 60.6988C16.8971 59.0992 15.081 56.5415 14.717 56.0445Z" fill="#50BEE7"/>
<path d="M14.717 56.0439C14.5909 55.8721 14.4049 55.7798 14.2067 55.7236C14.8707 56.7248 15.9032 58.4746 15.9032 59.6814C15.9032 61.2762 14.5655 62.573 12.9213 62.573C12.337 62.573 11.7955 62.4031 11.335 62.1205C11.8488 62.9933 12.8066 63.5896 13.9153 63.5896C15.5595 63.5896 16.8971 62.2928 16.8971 60.6981C16.8971 59.0986 15.081 56.5409 14.717 56.0439Z" fill="#00ACDD"/>
<path d="M34.5961 45.1339C34.2214 44.6233 33.3672 44.6233 32.9926 45.1339C32.6286 45.6308 30.8125 48.1885 30.8125 49.7882C30.8125 51.383 32.1501 52.6797 33.7944 52.6797C35.4386 52.6797 36.7762 51.3828 36.7762 49.7882C36.7762 48.1885 34.9601 45.6308 34.5961 45.1339Z" fill="#50BEE7"/>
<path d="M34.5962 45.1338C34.4701 44.9619 34.2841 44.8696 34.0859 44.8135C34.7498 45.8145 35.7823 47.5645 35.7823 48.7713C35.7823 50.3661 34.4447 51.6628 32.8005 51.6628C32.2161 51.6628 31.6747 51.493 31.2141 51.2103C31.728 52.0832 32.6858 52.6796 33.7944 52.6796C35.4387 52.6796 36.7763 51.3828 36.7763 49.7881C36.7763 48.1884 34.9602 45.6308 34.5962 45.1338Z" fill="#00ACDD"/>
<path d="M26.6444 45.1339C26.2697 44.6233 25.4155 44.6233 25.0409 45.1339C24.6769 45.6308 22.8608 48.1885 22.8608 49.7882C22.8608 51.383 24.1985 52.6797 25.8427 52.6797C27.4869 52.6797 28.8245 51.3828 28.8245 49.7882C28.8245 48.1885 27.0085 45.6308 26.6444 45.1339Z" fill="#50BEE7"/>
<path d="M26.6445 45.1338C26.5184 44.9619 26.3324 44.8696 26.1342 44.8135C26.7982 45.8145 27.8307 47.5645 27.8307 48.7713C27.8307 50.3661 26.493 51.6628 24.8488 51.6628C24.2645 51.6628 23.723 51.493 23.2625 51.2103C23.7763 52.0832 24.7341 52.6796 25.8428 52.6796C27.487 52.6796 28.8246 51.3828 28.8246 49.7881C28.8246 48.1884 27.0085 45.6308 26.6445 45.1338Z" fill="#00ACDD"/>
<path d="M18.6928 45.1339C18.3181 44.6233 17.4639 44.6233 17.0893 45.1339C16.7253 45.6308 14.9092 48.1885 14.9092 49.7882C14.9092 51.383 16.2468 52.6797 17.891 52.6797C19.5353 52.6797 20.8729 51.3828 20.8729 49.7882C20.8729 48.1885 19.0568 45.6308 18.6928 45.1339Z" fill="#50BEE7"/>
<path d="M18.6928 45.1338C18.5667 44.9619 18.3807 44.8696 18.1826 44.8135C18.8465 45.8145 19.879 47.5645 19.879 48.7713C19.879 50.3661 18.5414 51.6628 16.8971 51.6628C16.3128 51.6628 15.7714 51.493 15.3108 51.2103C15.8247 52.0832 16.7825 52.6796 17.8911 52.6796C19.5353 52.6796 20.8729 51.3828 20.8729 49.7881C20.8729 48.1884 19.0569 45.6308 18.6928 45.1338Z" fill="#00ACDD"/>
<path d="M10.7414 45.1339C10.3666 44.6233 9.51247 44.6233 9.13787 45.1339C8.77384 45.6308 6.95776 48.1885 6.95776 49.7882C6.95776 51.383 8.29537 52.6797 9.93962 52.6797C11.5839 52.6797 12.9215 51.3828 12.9215 49.7882C12.9215 48.1885 11.1054 45.6308 10.7414 45.1339Z" fill="#50BEE7"/>
<path d="M10.7412 45.1338C10.6151 44.9619 10.4291 44.8696 10.2309 44.8135C10.8949 45.8145 11.9273 47.5645 11.9273 48.7713C11.9273 50.3661 10.5897 51.6628 8.94548 51.6628C8.36116 51.6628 7.8197 51.493 7.35913 51.2103C7.873 52.0832 8.8308 52.6796 9.93943 52.6796C11.5837 52.6796 12.9213 51.3828 12.9213 49.7881C12.9213 48.1884 11.1052 45.6308 10.7412 45.1338Z" fill="#00ACDD"/>
<path d="M41.7459 23.8551V24.849C41.7459 25.398 41.3008 25.843 40.7519 25.843H3.9757C2.87775 25.843 1.98779 26.733 1.98779 27.8309H36.7761H4.96965H41.7459C42.8438 27.8309 43.7338 26.9409 43.7338 25.843V21.8672C42.6358 21.8672 41.7459 22.7571 41.7459 23.8551Z" fill="#2B709E"/>
<path d="M22.8608 7.95139V17.8909H24.8487V7.95139C24.8487 5.75874 26.6319 3.97559 28.8245 3.97559H26.8366C24.644 3.97559 22.8608 5.75874 22.8608 7.95139Z" fill="#2B709E"/>
<path d="M53.6735 0H51.6855C56.07 0 59.6372 3.56717 59.6372 7.95161V61.625V63.6129H61.6251V61.625V7.95161C61.6251 3.56717 58.0579 0 53.6735 0Z" fill="#23688E"/>
<path d="M24.9652 14.9092H18.7689C18.6417 14.9092 18.5152 14.9465 18.4116 15.0203C16.894 16.1013 15.9033 17.8738 15.9033 19.8789H27.8307C27.8307 17.8738 26.84 16.1013 25.3225 15.0203C25.2189 14.9465 25.0924 14.9092 24.9652 14.9092Z" fill="#566E7F"/>
<path d="M8.684 86.48V84.986H12.068V98H10.412V86.48H8.684ZM23.1796 86.408H16.8616V90.512C17.1376 90.128 17.5456 89.816 18.0856 89.576C18.6256 89.324 19.2076 89.198 19.8316 89.198C20.8276 89.198 21.6376 89.408 22.2616 89.828C22.8856 90.236 23.3296 90.77 23.5936 91.43C23.8696 92.078 24.0076 92.768 24.0076 93.5C24.0076 94.364 23.8456 95.138 23.5216 95.822C23.1976 96.506 22.6996 97.046 22.0276 97.442C21.3676 97.838 20.5456 98.036 19.5616 98.036C18.3016 98.036 17.2816 97.712 16.5016 97.064C15.7216 96.416 15.2476 95.552 15.0796 94.472H16.6816C16.8376 95.156 17.1676 95.69 17.6716 96.074C18.1756 96.458 18.8116 96.65 19.5796 96.65C20.5276 96.65 21.2416 96.368 21.7216 95.804C22.2016 95.228 22.4416 94.472 22.4416 93.536C22.4416 92.6 22.2016 91.88 21.7216 91.376C21.2416 90.86 20.5336 90.602 19.5976 90.602C18.9616 90.602 18.4036 90.758 17.9236 91.07C17.4556 91.37 17.1136 91.784 16.8976 92.312H15.3496V84.968H23.1796V86.408ZM26.1844 91.358C26.1844 89.294 26.5204 87.686 27.1924 86.534C27.8644 85.37 29.0404 84.788 30.7204 84.788C32.3884 84.788 33.5584 85.37 34.2304 86.534C34.9024 87.686 35.2384 89.294 35.2384 91.358C35.2384 93.458 34.9024 95.09 34.2304 96.254C33.5584 97.418 32.3884 98 30.7204 98C29.0404 98 27.8644 97.418 27.1924 96.254C26.5204 95.09 26.1844 93.458 26.1844 91.358ZM33.6184 91.358C33.6184 90.314 33.5464 89.432 33.4024 88.712C33.2704 87.98 32.9884 87.392 32.5564 86.948C32.1364 86.504 31.5244 86.282 30.7204 86.282C29.9044 86.282 29.2804 86.504 28.8484 86.948C28.4284 87.392 28.1464 87.98 28.0024 88.712C27.8704 89.432 27.8044 90.314 27.8044 91.358C27.8044 92.438 27.8704 93.344 28.0024 94.076C28.1464 94.808 28.4284 95.396 28.8484 95.84C29.2804 96.284 29.9044 96.506 30.7204 96.506C31.5244 96.506 32.1364 96.284 32.5564 95.84C32.9884 95.396 33.2704 94.808 33.4024 94.076C33.5464 93.344 33.6184 92.438 33.6184 91.358ZM49.6191 87.956C50.3871 87.956 51.0711 88.118 51.6711 88.442C52.2711 88.754 52.7451 89.228 53.0931 89.864C53.4411 90.5 53.6151 91.274 53.6151 92.186V98H51.9951V92.42C51.9951 91.436 51.7491 90.686 51.2571 90.17C50.7771 89.642 50.1231 89.378 49.2951 89.378C48.4431 89.378 47.7651 89.654 47.2611 90.206C46.7571 90.746 46.5051 91.532 46.5051 92.564V98H44.8851V92.42C44.8851 91.436 44.6391 90.686 44.1471 90.17C43.6671 89.642 43.0131 89.378 42.1851 89.378C41.3331 89.378 40.6551 89.654 40.1511 90.206C39.6471 90.746 39.3951 91.532 39.3951 92.564V98H37.7571V88.136H39.3951V89.558C39.7191 89.042 40.1511 88.646 40.6911 88.37C41.2431 88.094 41.8491 87.956 42.5091 87.956C43.3371 87.956 44.0691 88.142 44.7051 88.514C45.3411 88.886 45.8151 89.432 46.1271 90.152C46.4031 89.456 46.8591 88.916 47.4951 88.532C48.1311 88.148 48.8391 87.956 49.6191 87.956ZM57.94 84.68V98H56.302V84.68H57.94Z" fill="#A9A4A2"/>
</svg>
