<svg id="Capa_1" enable-background="new 0 0 512 512" height="512" viewBox="0 0 512 512" width="512" xmlns="http://www.w3.org/2000/svg"><g><path d="m220.748 253.842c-4.142 0-7.5-3.358-7.5-7.5s3.358-7.5 7.5-7.5c43.863 0 79.198-5.57 108.024-17.03 21.751-8.646 39.139-20.345 54.722-36.817 2.845-3.009 7.592-3.141 10.603-.294 3.009 2.847 3.141 7.593.294 10.603-23.773 25.129-67.638 58.538-173.643 58.538z" fill="#77d1b3"/><path d="m446.872 214.129-48.89 13.044-17.503-75.449 62.082-16.557c4.921-1.312 9.805 2.227 10.09 7.311l3.321 59.089c.328 5.815-3.472 11.06-9.1 12.562z" fill="#e27f86"/><path d="m455.973 201.567-3.321-59.089c-.286-5.084-5.17-8.623-10.09-7.311l-16.076 4.287c1.056 1.347 1.741 3.017 1.846 4.887l3.617 64.359c.23 4.085-1.418 7.904-4.255 10.545l19.179-5.117c5.627-1.501 9.427-6.746 9.1-12.561z" fill="#df646e"/><path d="m88.198 259.736c-44.568 0-80.698 36.13-80.698 80.697 0 44.568 36.13 80.698 80.698 80.698s80.697-36.13 80.697-80.698c0-44.567-36.13-80.697-80.697-80.697zm0 133.547c-29.188 0-52.849-23.662-52.849-52.849 0-29.188 23.662-52.849 52.849-52.849 29.188 0 52.849 23.662 52.849 52.849 0 29.188-23.662 52.849-52.849 52.849z" fill="#d6e0f4"/><path d="m88.198 428.631c-48.633 0-88.198-39.565-88.198-88.197s39.565-88.198 88.198-88.198 88.197 39.565 88.197 88.198-39.565 88.197-88.197 88.197zm0-161.395c-40.362 0-73.198 32.837-73.198 73.198s32.836 73.197 73.198 73.197 73.197-32.836 73.197-73.197-32.836-73.198-73.197-73.198z" fill="#453d81"/><path d="m86.354 347.936c-3.373 0-6.437-2.291-7.277-5.713l-28.104-114.405c-.988-4.022 1.472-8.084 5.494-9.073 4.022-.985 8.084 1.472 9.073 5.495l28.104 114.405c.988 4.022-1.472 8.084-5.495 9.073-.601.147-1.203.218-1.795.218z" fill="#77d1b3"/><path d="m168.314 194.177-17.848 31.857h-105.161c-8.798 0-15.929-7.131-15.929-15.929 0-4.399 1.783-8.376 4.663-11.266 2.89-2.88 6.867-4.663 11.266-4.663h123.009z" fill="#e27f86"/><path d="m255.291 348.842c-2.071 0-4.132-.853-5.614-2.524-2.748-3.099-2.464-7.839.635-10.587l139.938-124.103c3.098-2.749 7.838-2.464 10.587.635s2.464 7.839-.635 10.587l-139.938 124.103c-1.428 1.266-3.204 1.889-4.973 1.889z" fill="#92e0c4"/><path d="m423.803 259.736c-44.568 0-80.698 36.13-80.698 80.697 0 44.568 36.13 80.698 80.698 80.698s80.697-36.13 80.697-80.698c0-44.567-36.13-80.697-80.697-80.697zm0 133.547c-29.188 0-52.849-23.662-52.849-52.849 0-29.188 23.662-52.849 52.849-52.849 29.188 0 52.849 23.662 52.849 52.849 0 29.188-23.662 52.849-52.849 52.849z" fill="#d6e0f4"/><path d="m423.803 428.631c-48.632 0-88.198-39.565-88.198-88.197s39.565-88.198 88.198-88.198 88.197 39.566 88.197 88.198-39.565 88.197-88.197 88.197zm0-161.395c-40.361 0-73.198 32.836-73.198 73.198s32.836 73.197 73.198 73.197 73.197-32.836 73.197-73.197-32.836-73.198-73.197-73.198z" fill="#453d81"/><path d="m255.288 348.844c-3.064 0-5.941-1.892-7.049-4.939l-75.443-207.502c-1.415-3.893.593-8.196 4.486-9.611 3.892-1.417 8.195.593 9.611 4.486l75.442 207.502c1.416 3.893-.593 8.196-4.486 9.611-.845.307-1.71.453-2.561.453z" fill="#92e0c4"/><path d="m86.353 347.935c-1.241 0-2.5-.309-3.659-.958-3.614-2.025-4.902-6.596-2.877-10.209l102.25-182.481c2.025-3.614 6.595-4.902 10.209-2.877s4.901 6.596 2.877 10.209l-102.25 182.481c-1.375 2.453-3.924 3.835-6.55 3.835z" fill="#92e0c4"/><path d="m255.288 305.371c-1.25 0-2.483.068-3.699.195-69.692 7.183-129.536 13.351-165.198 17.026-9.055.906-16.126 8.547-16.126 17.842 0 9.294 7.07 16.935 16.125 17.841 35.663 3.676 95.508 9.843 165.202 17.027 1.215.127 2.447.195 3.696.195 19.365 0 35.063-15.698 35.063-35.063s-15.699-35.063-35.063-35.063z" fill="#8a94db"/><path d="m255.288 353.358c-1.249 0-2.481-.068-3.696-.195-69.694-7.183-129.539-13.351-165.202-17.026-4.981-.499-9.353-3.043-12.286-6.772-2.399 3.049-3.839 6.889-3.839 11.07 0 9.294 7.07 16.935 16.125 17.841 35.663 3.676 95.508 9.843 165.202 17.027 1.215.127 2.447.195 3.696.195 19.365 0 35.063-15.698 35.063-35.063 0-3.87-.636-7.589-1.794-11.07-4.636 13.937-17.774 23.993-33.269 23.993z" fill="#717ed4"/><path d="m431.108 338.739-47.937-206.663 11.113-3.098c6.001-1.673 10.983-5.587 14.027-11.023 3.044-5.435 3.78-11.728 2.072-17.718-3.435-12.049-15.66-19.163-27.834-16.197l-52.206 12.724c-4.024.981-6.492 5.038-5.511 9.063s5.037 6.493 9.063 5.511l52.206-12.724c4.31-1.049 8.642 1.469 9.858 5.736.605 2.122.344 4.35-.734 6.275s-2.843 3.312-4.968 3.904l-18.027 5.025c-1.406.392-2.809 1.266-3.818 2.519-1.479 1.836-1.982 4.21-1.474 6.4l49.559 213.655c.804 3.465 3.889 5.807 7.3 5.807.561 0 1.131-.063 1.701-.195 4.034-.936 6.546-4.966 5.61-9.001z" fill="#92e0c4"/><ellipse cx="423.802" cy="340.434" fill="#8a94db" rx="16.603" ry="16.603" transform="matrix(.707 -.707 .707 .707 -116.594 399.384)"/><path d="m255.288 411.056c-4.142 0-7.5-3.358-7.5-7.5v-62.215c0-4.142 3.358-7.5 7.5-7.5s7.5 3.358 7.5 7.5v62.215c0 4.142-3.358 7.5-7.5 7.5z" fill="#d6e0f4"/><path d="m275.344 411.056h-40.112c-4.142 0-7.5-3.358-7.5-7.5s3.358-7.5 7.5-7.5h40.112c4.142 0 7.5 3.358 7.5 7.5s-3.358 7.5-7.5 7.5z" fill="#e27f86"/><path d="m217.055 110.907c-.001 0-.001 0 0 0l-50.631-4.773c-4.778-.454-9.546 1.143-13.092 4.37s-5.58 7.829-5.58 12.624v6.643c0 9.412 7.657 17.07 17.069 17.07h50.686c9.092 0 16.489-7.397 16.489-16.489v-3.028c-.001-8.557-6.424-15.614-14.941-16.417z" fill="#8a94db"/></g></svg>