<svg width="176" height="176" viewBox="0 0 176 176" fill="none" xmlns="http://www.w3.org/2000/svg">
<g clip-path="url(#clip0)">
<path d="M38.9813 33.1719H16.732C14.3969 33.1719 12.5039 35.0649 12.5039 37.4V44.4386H50.3453L43.3204 35.3079C42.2837 33.9611 40.6808 33.1719 38.9813 33.1719Z" fill="#91DAFA"/>
<path d="M170.59 79.8437C169.978 79.8437 169.364 79.6306 168.868 79.1964C167.78 78.245 167.67 76.5919 168.621 75.5047L169.611 74.3741C170.372 73.5045 170.791 72.3894 170.791 71.2341V63.4012C170.791 62.5065 170.063 61.7788 169.168 61.7788H154.898C153.452 61.7788 152.281 60.6073 152.281 59.1626C152.281 57.7175 153.453 56.5464 154.898 56.5464H169.168C172.949 56.5464 176.024 59.6215 176.024 63.4016V71.2344C176.024 73.6578 175.145 75.9966 173.549 77.8205L172.56 78.951C172.042 79.5412 171.318 79.8437 170.59 79.8437Z" fill="#8A94DB"/>
<path d="M0 46.3019V129.46C0 130.446 0.799906 131.246 1.78647 131.246H157.918C158.904 131.246 159.704 130.446 159.704 129.46V118.32C158.213 113.932 158.402 109.624 159.704 105.369V70.3896C159.704 56.0995 148.12 44.5154 133.83 44.5154H1.78647C0.799906 44.5154 0 45.3153 0 46.3019H0Z" fill="#91DAFA"/>
<path d="M157.918 122.614H1.78647C0.799906 122.614 0 121.814 0 120.828V129.354C0 130.34 0.799906 131.14 1.78647 131.14H157.918C158.904 131.14 159.704 130.34 159.704 129.354V120.828C159.704 121.814 158.904 122.614 157.918 122.614Z" fill="#6CBFF8"/>
<path d="M159.704 129.46V118.32C158.246 114.597 158.351 110.314 159.704 105.369V70.3896C159.704 56.0995 148.12 44.5154 133.83 44.5154H1.78647C0.799906 44.5154 0 45.3153 0 46.3019V78.1584H110.56L141.371 131.246H157.918C158.904 131.246 159.704 130.446 159.704 129.46Z" fill="#8A94DB"/>
<path d="M157.923 122.614H136.426L141.375 131.14H157.923C158.417 131.14 158.863 130.94 159.187 130.617C159.51 130.294 159.71 129.847 159.71 129.354V120.828C159.71 121.814 158.91 122.614 157.923 122.614Z" fill="#717ED4"/>
<path d="M39.5002 139.647C45.9987 134.575 47.1552 125.196 42.0834 118.697C37.0117 112.198 27.6322 111.042 21.1337 116.114C14.6352 121.185 13.4787 130.565 18.5504 137.064C23.6222 143.563 33.0017 144.719 39.5002 139.647Z" fill="#453D81"/>
<path d="M33.6742 132.337C36.0065 130.517 36.4216 127.151 34.6013 124.818C32.7811 122.486 29.4147 122.071 27.0824 123.891C24.7501 125.711 24.335 129.078 26.1553 131.41C27.9755 133.742 31.3419 134.157 33.6742 132.337Z" fill="#D6E0F4"/>
<path d="M114.953 139.819C121.452 134.747 122.608 125.367 117.537 118.868C112.465 112.37 103.085 111.213 96.5868 116.285C90.0884 121.357 88.9318 130.737 94.0036 137.235C99.0754 143.734 108.455 144.891 114.953 139.819Z" fill="#453D81"/>
<path d="M109.041 132.166C111.373 130.345 111.788 126.979 109.968 124.647C108.148 122.315 104.782 121.9 102.449 123.72C100.117 125.54 99.7021 128.906 101.522 131.239C103.343 133.571 106.709 133.986 109.041 132.166Z" fill="#D6E0F4"/>
<path d="M132.78 54.8281H112.192C111.365 54.8281 110.848 55.725 111.264 56.4406L131.213 90.8116C131.628 91.5269 132.163 92.1477 132.78 92.6602V54.8281H132.78Z" fill="#453D81"/>
<path d="M154.511 54.8281H138.016V94.2628H159.676V70.3415C159.676 64.5213 157.754 59.1509 154.511 54.8281Z" fill="#453D81"/>
<path d="M82.457 78.1086H110.549L97.5408 55.6968C97.2287 55.1592 96.6539 54.8281 96.0321 54.8281H82.457V78.1086Z" fill="#453D81"/>
<path d="M55.6016 54.8284H77.2506V78.1095H55.6016V54.8284Z" fill="#453D81"/>
<path d="M28.7031 54.8284H50.3532V78.1095H28.7031V54.8284Z" fill="#453D81"/>
<path d="M23.4532 55H11.3152C10.4758 55 9.79688 55.6789 9.79688 56.5149V76.7615C9.79688 77.6002 10.4768 78.2798 11.3152 78.2798H23.4529V55H23.4532Z" fill="#453D81"/>
<path d="M152.522 105.188H159.688V118.14H152.522C150.775 118.14 149.359 116.724 149.359 114.977V108.351C149.359 106.604 150.775 105.188 152.522 105.188Z" fill="#EEC06B"/>
</g>
<defs>
<clipPath id="clip0">
<rect width="176" height="176" fill="white"/>
</clipPath>
</defs>
</svg>
