<svg width="176" height="176" viewBox="0 0 176 176" fill="none" xmlns="http://www.w3.org/2000/svg">
<path d="M29.0256 119.064H169.059C172.892 119.064 174.281 115.956 174.281 112.122V93.4906C174.281 88.6778 171.6 84.2736 167.333 82.0461C158.631 77.5021 144.305 71.1011 125.729 73.1368C120.719 68.4539 116.359 64.451 112.683 61.119C103.749 53.023 92.3037 48.2462 80.2649 47.6021L67.9023 46.9403C56.9711 46.3553 46.0883 49.1396 36.9026 55.0941C31.2097 58.7842 25.389 63.7208 21.3507 70.0668H10.4232C10.2242 70.0668 10.0286 70.0806 9.83709 70.1074C7.79934 70.3927 7.73438 72.1427 7.73438 74.2588L6.23116 90.3463V95.0103H1.06872C0.4785 95.0103 0 95.4888 0 96.079V112.327C0 112.835 0.358531 113.273 0.856969 113.374L29.0256 119.064Z" fill="#D6E0F4"/>
<path d="M169.052 82.0459C160.664 77.6662 145.455 71.5646 127.733 72.9517C140.934 73.9568 151.982 78.5493 158.679 82.0459C162.945 84.2734 165.627 88.6776 165.627 93.4904V112.122C165.627 115.956 162.519 119.063 158.686 119.063H169.059C172.892 119.063 176 115.956 176 112.122V98.5088L174.101 93.4904C174.101 91.6524 175.609 89.8741 174.888 88.2541C173.721 85.6316 171.689 83.423 169.052 82.0459Z" fill="#B8C9EA"/>
<path d="M6.23096 90.3513H14.9835C17.1251 90.3513 18.861 88.6153 18.861 86.4738V84.1878C18.861 83.3914 18.6159 82.6145 18.1587 81.9624L9.85168 70.1106C7.80739 70.3901 6.23096 72.1384 6.23096 74.2593V90.3513Z" fill="#E27F86"/>
<path d="M0 106.651V112.327C0 112.835 0.358531 113.274 0.856969 113.374L29.0256 119.064H169.059C172.892 119.064 176 115.956 176 112.123V106.651H0V106.651Z" fill="#A4ACE3"/>
<path d="M165.627 112.123C165.627 115.956 162.519 119.064 158.686 119.064H169.059C169.298 119.064 169.535 119.052 169.768 119.028C170.235 118.981 170.688 118.887 171.123 118.752C171.775 118.55 172.386 118.253 172.939 117.879C174.786 116.631 176 114.519 176 112.123V106.651H165.627V112.123Z" fill="#8A94DB"/>
<path d="M83.4116 71.7072L125.729 73.1372C120.705 68.4409 116.334 64.4286 112.651 61.0912C104.577 53.7748 94.4429 49.1823 83.6791 47.8977C84.8124 53.2289 85.6027 62.7759 83.4116 71.7072Z" fill="#717ED4"/>
<path d="M78.1142 47.4874L72.7081 47.198C64.8046 48.0787 57.1623 50.7317 50.432 55.0946C46.1871 57.8463 41.8713 61.2907 38.276 65.4958C36.7044 67.3339 37.9247 70.1701 40.3416 70.2516L77.9674 71.5231C80.7412 61.6238 79.0578 50.8906 78.1142 47.4874Z" fill="#717ED4"/>
<path d="M48.6633 125.926C55.2357 120.796 56.4054 111.31 51.2759 104.738C46.1465 98.1654 36.6602 96.9957 30.0878 102.125C23.5155 107.255 22.3458 116.741 27.4752 123.313C32.6047 129.886 42.0909 131.055 48.6633 125.926Z" fill="#514898"/>
<path d="M43.0832 118.776C45.7067 116.728 46.1736 112.942 44.1261 110.318C42.0785 107.695 38.2918 107.228 35.6683 109.275C33.0448 111.323 32.5778 115.109 34.6254 117.733C36.673 120.357 40.4596 120.823 43.0832 118.776Z" fill="#D5D9F2"/>
<path d="M154.172 125.97C160.744 120.84 161.914 111.354 156.784 104.781C151.655 98.2091 142.169 97.0394 135.596 102.169C129.024 107.298 127.854 116.785 132.984 123.357C138.113 129.929 147.599 131.099 154.172 125.97Z" fill="#514898"/>
<path d="M148.591 118.82C151.215 116.772 151.682 112.985 149.634 110.362C147.587 107.738 143.8 107.271 141.177 109.319C138.553 111.366 138.086 115.153 140.134 117.777C142.181 120.4 145.968 120.867 148.591 118.82Z" fill="#D5D9F2"/>
<path d="M89.8415 83.6376H88C86.5333 83.6376 85.3442 82.4485 85.3442 80.9817C85.3442 79.5146 86.5333 78.3259 88 78.3259H89.8415C91.3083 78.3259 92.4973 79.515 92.4973 80.9817C92.4973 82.4485 91.3083 83.6376 89.8415 83.6376Z" fill="#8A94DB"/>
<path d="M50.1467 83.6376H48.3052C46.8384 83.6376 45.6494 82.4485 45.6494 80.9817C45.6494 79.5146 46.8384 78.3259 48.3052 78.3259H50.1467C51.6135 78.3259 52.8025 79.515 52.8025 80.9817C52.8028 82.4485 51.6135 83.6376 50.1467 83.6376Z" fill="#8A94DB"/>
<path d="M158.021 91.3409C158.021 94.8733 163.875 98.9312 171.096 98.9312C172.831 98.9312 174.485 98.7886 176 98.5322V93.4907C176 91.6441 175.602 89.859 174.875 88.2327C173.678 88.0818 172.41 88 171.096 88C163.875 88 158.021 88.3224 158.021 91.3409Z" fill="#E5936A"/>
<path d="M175.711 90.7836C175.523 89.9111 175.204 88.97 174.875 88.233C173.678 88.0821 172.41 88.0002 171.096 88.0002C168.683 88.0002 166.424 88.037 164.484 88.1976C165.222 89.8338 165.627 91.6309 165.627 93.4913V98.1299C167.291 98.6331 169.143 98.9318 171.096 98.9318C172.831 98.9318 174.485 98.7892 176 98.5327V93.4913C176 92.5683 175.873 91.5374 175.711 90.7836Z" fill="#E27C48"/>
</svg>
