<svg width="176" height="176" viewBox="0 0 176 176" fill="none" xmlns="http://www.w3.org/2000/svg">
<g clip-path="url(#clip0)">
<path d="M19.4023 117.365L60.2041 82.0364L68.0227 110.926L21.579 124.702L19.4023 117.365Z" fill="#717ED4"/>
<path d="M119.04 56.0751C118.037 56.0751 117.077 55.5041 116.628 54.5337L110.638 41.586L100.065 44.9197C98.6666 45.3611 97.1744 44.5846 96.733 43.1855C96.292 41.7864 97.0685 40.2949 98.4675 39.8539L110.377 36.0987C112.155 35.5388 114.087 36.3913 114.87 38.0836L121.448 52.3038C122.064 53.6351 121.484 55.2136 120.153 55.8293C119.792 55.996 119.413 56.0751 119.04 56.0751Z" fill="#514898"/>
<path d="M124.236 80.5519L135.275 77.7685C141.218 76.2722 147.322 76.6623 152.849 78.742L130.166 53.2636C126.868 49.5583 121.776 48.0046 116.971 49.2376L76.9681 63.6672C75.5498 64.1787 74.0142 64.2726 72.544 63.9371L15.6183 50.9502C13.2891 50.5686 11.24 52.5184 11.5057 54.8638L12.5909 64.451L39.4986 73.5995L52.4144 97.3142L58.8507 111.27L66.3135 117.764H105.156L110.452 94.6845C112.008 87.7259 117.293 82.3002 124.236 80.5519Z" fill="#E27F86"/>
<path d="M117.576 55.453L136.759 77.4393C142.228 76.3533 147.781 76.8349 152.849 78.7421L130.166 53.2637C126.867 49.558 121.776 48.0046 116.97 49.2377L110.919 51.4205C113.446 52.0585 115.778 53.4331 117.576 55.453Z" fill="#DF646E"/>
<path d="M111.483 96.0595C113.039 89.101 118.324 83.6752 125.267 81.9269L136.306 79.1436C142.249 77.6472 147.322 76.6624 152.849 78.7421L150.473 76.0739L118.677 67.0625C114.744 65.9477 110.521 67.2226 107.862 70.3284L89.2521 92.0634C87.234 94.4205 84.0935 95.494 81.0544 94.8656L47.2744 87.8793L52.4131 97.3142L58.8495 111.27L56.1724 116.371L57.4848 117.764H105.155L111.483 96.0595Z" fill="#514898"/>
<path d="M150.473 76.0735L130.671 70.4614L136.759 77.4389C142.213 76.3557 147.785 76.8366 152.849 78.7417L150.473 76.0735Z" fill="#453D81"/>
<path d="M92.0687 117.763V109.284H79.2695C78.1884 109.284 77.1602 108.814 76.4528 107.996L71.9118 102.747C71.2044 101.929 70.1766 101.459 69.0951 101.459H53.2441L66.461 117.763H92.0687V117.763Z" fill="#E27F86"/>
<path d="M76.9674 63.667C75.5491 64.1789 74.0135 64.2724 72.5433 63.9369L28.8049 53.9585C24.88 59.3739 26.9163 67.0275 33.0134 69.7765L60.2037 82.0357C64.8564 84.1336 70.2831 83.5241 74.3549 80.4465L78.9951 76.9392C83.5526 73.4945 86.7636 68.5655 88.0722 63.0046L88.9323 59.3506L76.9674 63.667Z" fill="#514898"/>
<path d="M155.735 92.3363C150.913 87.7847 143.506 85.0014 137.077 86.6201L126.037 89.4034C122.85 90.2071 120.424 92.6966 119.706 95.9072L115.611 117.763H145.396L157.384 93.8928L155.735 92.3363Z" fill="#717ED4"/>
<path d="M155.735 92.3363C150.913 87.7847 144.194 86.0323 137.765 87.6514L126.725 90.4347C123.538 91.2384 121.111 93.7278 120.394 96.9385L115.611 117.763H121.482L125.079 102.102C125.672 99.4482 127.677 97.3908 130.312 96.7267L139.435 94.4263C144.749 93.0885 150.302 94.5367 154.287 98.298L154.887 98.8645L157.384 93.8928L155.735 92.3363Z" fill="#5766CC"/>
<path d="M157.38 135.908C166.181 129.13 167.82 116.5 161.042 107.699C154.264 98.8984 141.634 97.2589 132.833 104.037C124.032 110.816 122.393 123.445 129.171 132.246C135.95 141.047 148.579 142.686 157.38 135.908Z" fill="#514898"/>
<path d="M161.057 107.617C161.589 109.425 161.88 111.336 161.88 113.316C161.88 124.428 152.872 133.436 141.76 133.436C135.298 133.436 129.552 130.387 125.871 125.652C128.329 133.987 136.035 140.073 145.167 140.073C156.279 140.073 165.287 131.065 165.287 119.953C165.287 115.303 163.706 111.024 161.057 107.617Z" fill="#453D81"/>
<path d="M150.028 126.316C153.523 123.588 154.145 118.543 151.417 115.048C148.689 111.553 143.644 110.931 140.149 113.659C136.654 116.386 136.032 121.431 138.76 124.927C141.488 128.422 146.532 129.044 150.028 126.316Z" fill="#D5D9F2"/>
<path d="M34.068 136.064C42.98 129.43 44.8266 116.827 38.1927 107.915C31.5587 99.0033 18.9562 97.1567 10.0443 103.791C1.13229 110.425 -0.714387 123.027 5.91958 131.939C12.5536 140.851 25.156 142.698 34.068 136.064Z" fill="#514898"/>
<path d="M37.954 107.617C38.4868 109.425 38.7776 111.336 38.7776 113.316C38.7776 124.428 29.7693 133.436 18.6572 133.436C12.1954 133.436 6.44929 130.387 2.76807 125.652C5.22622 133.987 12.9324 140.073 22.0645 140.073C33.1765 140.073 42.1848 131.065 42.1848 119.953C42.1848 115.303 40.6029 111.024 37.954 107.617Z" fill="#453D81"/>
<path d="M26.95 126.266C30.4453 123.538 31.0673 118.493 28.3394 114.998C25.6115 111.502 20.5667 110.88 17.0714 113.608C13.5761 116.336 12.9541 121.381 15.682 124.876C18.4099 128.372 23.4547 128.994 26.95 126.266Z" fill="#D5D9F2"/>
<path d="M66.4617 117.763H55.4418C55.4418 117.763 41.8853 84.7816 41.8736 84.7545C40.9211 82.3276 38.9765 80.4109 36.5341 79.4934L3.30934 67.0345C0.671061 66.0466 -0.662002 63.1065 0.325936 60.472C1.31387 57.8375 4.25397 56.5006 6.88847 57.4886L40.1133 69.9512C45.2451 71.8721 49.334 75.8985 51.3487 80.9949L66.4617 117.763Z" fill="#BFC5EB"/>
<path d="M94.8711 117.2C98.5439 115.678 100.287 111.466 98.7647 107.794C97.2424 104.121 93.0309 102.378 89.3581 103.9C85.6854 105.422 83.9421 109.634 85.4645 113.307C86.9869 116.979 91.1983 118.723 94.8711 117.2Z" fill="#B8C9EA"/>
<path d="M174.608 103.152C172.675 105.199 169.448 105.289 167.406 103.356L155.735 92.3363C150.913 87.7847 144.194 86.0326 137.765 87.6513L126.725 90.4347C123.538 91.2383 121.112 93.7278 120.394 96.9384L115.611 117.763H105.156L110.452 94.6841C112.009 87.7256 117.293 82.2998 124.236 80.5515L135.276 77.7682C145.1 75.2945 155.367 77.9682 162.734 84.9268L174.405 95.9467C176.45 97.8796 176.54 101.106 174.608 103.152Z" fill="#BFC5EB"/>
</g>
<defs>
<clipPath id="clip0">
<rect width="176" height="176" fill="white"/>
</clipPath>
</defs>
</svg>
