<svg width="176" height="176" viewBox="0 0 176 176" fill="none" xmlns="http://www.w3.org/2000/svg">
<g clip-path="url(#clip0)">
<path d="M169.899 101.883L163.363 104.945C153.38 109.622 142.491 112.046 131.467 112.046H58.6804C54.674 112.046 50.7115 111.211 47.0455 109.595L9.84173 93.1939C4.57823 90.8736 1.18164 85.6641 1.18164 79.9117V76.6726C1.18164 72.2843 4.73911 68.7268 9.12742 68.7268H136.057C148.081 68.7268 159.691 73.1165 168.706 81.0716L172.414 84.343C174.694 86.3543 175.999 89.248 175.999 92.2881C175.999 96.399 173.621 100.139 169.899 101.883Z" fill="#D6E0F4"/>
<path d="M171.432 93.8153L164.896 96.8774C154.913 101.554 144.024 103.978 133.001 103.978H60.2138C56.2074 103.978 52.245 103.143 48.5789 101.527L11.3755 85.1263C6.15255 82.8239 2.77177 77.6755 2.72021 71.9758C1.75427 73.2917 1.18262 74.9149 1.18262 76.6725V79.9116C1.18262 85.664 4.57921 90.8735 9.84271 93.1938L47.0464 109.595C50.7125 111.211 54.6749 112.046 58.6813 112.046H131.468C142.492 112.046 153.381 109.622 163.364 104.945L169.9 101.883C173.623 100.139 176 96.3993 176 92.2884C176 91.5366 175.92 90.7941 175.765 90.0715C174.711 91.6621 173.231 92.9731 171.432 93.8153Z" fill="#B8C9EA"/>
<path d="M139.823 84.4323L144.899 88.1617C146.467 89.3139 148.362 89.9354 150.308 89.9354H175.733C175.243 87.7887 174.095 85.8262 172.414 84.3436L168.707 81.0722C168.101 80.5376 167.482 80.0203 166.854 79.5181H141.434C138.806 79.5181 137.705 82.8758 139.823 84.4323Z" fill="#6A61B2"/>
<path d="M46.8716 130.931H56.0336C59.2807 130.931 62.483 130.176 65.3888 128.727L116.617 103.174C117.776 102.595 117.365 100.848 116.07 100.848H70.5753C69.5942 100.848 68.6565 101.253 67.9837 101.968L44.9329 126.441C43.3324 128.141 44.5372 130.931 46.8716 130.931Z" fill="#E27F86"/>
<path d="M2.10338 96.9537H7.16716C8.61125 96.9537 10.0364 96.6272 11.3365 95.9981L28.8887 87.5058C31.1977 86.3886 30.4019 82.9177 27.8372 82.9177H11.7631C10.4833 82.9177 9.2661 83.4705 8.42391 84.434L0.522814 93.4726C-0.663811 94.83 0.300064 96.9537 2.10338 96.9537Z" fill="#E27F86"/>
<path d="M9.47958 45.0691H15.7829C19.3473 45.0691 22.7611 46.508 25.2498 49.0597L44.4331 68.727H16.8307L7.87152 47.4929C7.38614 46.3423 8.23074 45.0691 9.47958 45.0691Z" fill="#E27F86"/>
<path d="M109.701 84.2367V85.2164C109.701 87.8224 111.813 89.9351 114.419 89.9351H119.421C122.027 89.9351 124.14 87.8224 124.14 85.2164V84.2367C124.14 81.6307 122.027 79.5181 119.421 79.5181H114.419C111.813 79.5181 109.701 81.6307 109.701 84.2367Z" fill="#6A61B2"/>
<path d="M81.418 84.2367V85.2164C81.418 87.8224 83.5307 89.9351 86.1366 89.9351H91.1385C93.7445 89.9351 95.8572 87.8224 95.8572 85.2164V84.2367C95.8572 81.6307 93.7445 79.5181 91.1385 79.5181H86.1366C83.5307 79.5181 81.418 81.6307 81.418 84.2367Z" fill="#6A61B2"/>
<path d="M53.1353 84.2367V85.2164C53.1353 87.8224 55.2479 89.9351 57.8539 89.9351H62.8558C65.4618 89.9351 67.5745 87.8224 67.5745 85.2164V84.2367C67.5745 81.6307 65.4618 79.5181 62.8558 79.5181H57.8539C55.2479 79.5181 53.1353 81.6307 53.1353 84.2367Z" fill="#6A61B2"/>
</g>
<defs>
<clipPath id="clip0">
<rect width="176" height="176" fill="white"/>
</clipPath>
</defs>
</svg>
