<svg width="176" height="176" viewBox="0 0 176 176" fill="none" xmlns="http://www.w3.org/2000/svg">
<path d="M3.84484 48.5237H108.757C121.463 48.5237 133.489 54.2677 141.474 64.1516L173.633 103.954C175.164 105.85 176 108.214 176 110.651C176 116.537 171.229 121.308 165.343 121.308H3.84484C1.7215 121.308 0 119.587 0 117.463V52.3685C0 50.2452 1.7215 48.5237 3.84484 48.5237Z" fill="#D6E0F4"/>
<path d="M173.633 103.954L141.474 64.1516C133.489 54.2677 121.463 48.5237 108.757 48.5237H96.5269C109.233 48.5237 121.259 54.2677 129.244 64.1516L161.403 103.954C162.935 105.85 163.77 108.214 163.77 110.651C163.77 116.537 158.999 121.308 153.114 121.308H165.344C171.229 121.308 176 116.537 176 110.651C176 108.214 175.164 105.85 173.633 103.954Z" fill="#B8C9EA"/>
<path d="M141.474 64.1516C133.489 54.2677 121.463 48.5237 108.757 48.5237H3.84484C1.7215 48.5237 0 50.2452 0 52.3685V58.8193H100.463C104.733 58.8193 108.772 60.7591 111.44 64.0932L132.628 90.3202C134.952 93.1978 138.454 94.8701 142.153 94.8701H166.293L141.474 64.1516Z" fill="#E27F86"/>
<path d="M35.5127 61.4756V84.2968V84.2971H69.3573V61.4756H35.5127Z" fill="#6A61B2"/>
<path d="M30.2012 84.2968V61.4756H0V84.2971H30.2012V84.2968Z" fill="#6A61B2"/>
<path d="M65.7139 63.535V105.444H97.9212V63.535C97.9212 62.3975 96.9992 61.4756 95.8618 61.4756H67.7733C66.6361 61.4756 65.7139 62.3975 65.7139 63.535Z" fill="#B8C9EA"/>
<path d="M129.244 64.1516L154.064 94.8705H166.294L141.474 64.1516C133.489 54.2677 121.463 48.5237 108.757 48.5237H96.5269C109.233 48.5237 121.259 54.2681 129.244 64.1516Z" fill="#DF646E"/>
<path d="M42.5826 107.395L35.8389 121.308H125.616L118.873 107.395C118.295 106.202 117.085 105.445 115.759 105.445H45.6962C44.3701 105.445 43.1607 106.202 42.5826 107.395Z" fill="#514898"/>
<path d="M75.77 71.8432V80.2338C75.77 82.4778 77.5891 84.2969 79.8331 84.2969H83.8024C86.0464 84.2969 87.8655 82.4778 87.8655 80.2338V71.8432C87.8655 69.5992 86.0464 67.78 83.8024 67.78H79.8331C77.5891 67.78 75.77 69.5992 75.77 71.8432Z" fill="#6A61B2"/>
<path d="M141.474 64.1515C139.905 62.2097 138.179 60.4304 136.323 58.8203H124.507C123.175 58.8203 122.438 60.3634 123.275 61.3991L138.592 80.3573C140.605 82.8488 143.636 84.297 146.84 84.297H157.751L141.474 64.1515Z" fill="#6A61B2"/>
<path d="M141.474 64.1515C140.42 62.8477 139.127 61.4239 137.716 60.0853C137.702 60.0723 137.689 60.0588 137.675 60.0458C137.233 59.6274 136.781 59.218 136.323 58.8203H124.506C124.38 58.8203 124.26 58.8382 124.145 58.8643C125.98 60.4628 127.69 62.2276 129.244 64.1515L145.443 84.2008C145.903 84.2619 146.369 84.297 146.84 84.297H157.751L141.474 64.1515Z" fill="#514898"/>
<path d="M108.812 117.679C109.457 111.631 105.077 106.205 99.0283 105.56C92.98 104.915 87.5541 109.295 86.9091 115.344C86.2641 121.392 90.6443 126.818 96.6926 127.463C102.741 128.108 108.167 123.728 108.812 117.679Z" fill="#8A94DB"/>
<path d="M106.515 109.605C106.482 115.662 101.563 120.563 95.4984 120.563C92.0052 120.563 88.8939 118.935 86.8754 116.399C86.8754 116.419 86.874 116.438 86.874 116.458C86.874 122.543 91.8068 127.476 97.8916 127.476C103.976 127.476 108.909 122.543 108.909 116.458C108.909 113.867 108.012 111.486 106.515 109.605Z" fill="#717ED4"/>
<path d="M63.7636 127.474C69.8484 127.383 74.7071 122.376 74.6159 116.291C74.5246 110.207 69.5179 105.348 63.4331 105.439C57.3482 105.531 52.4895 110.537 52.5808 116.622C52.6721 122.707 57.6788 127.566 63.7636 127.474Z" fill="#8A94DB"/>
<path d="M72.1874 109.605C72.1551 115.662 67.2363 120.563 61.1712 120.563C57.678 120.563 54.5668 118.935 52.5482 116.399C52.5482 116.419 52.5469 116.438 52.5469 116.458C52.5469 122.543 57.4797 127.476 63.5644 127.476C69.6491 127.476 74.5819 122.543 74.5819 116.458C74.5819 113.867 73.6848 111.486 72.1874 109.605Z" fill="#717ED4"/>
</svg>
