<svg id="Capa_1" enable-background="new 0 0 512 512" height="512" viewBox="0 0 512 512" width="512" xmlns="http://www.w3.org/2000/svg"><g><path d="m157.046 167.907c-2.36 0-4.69-1.077-6.207-3.118-2.545-3.425-1.833-8.264 1.592-10.81l79.724-59.263c3.425-2.546 8.264-1.835 10.811 1.592 2.545 3.425 1.833 8.264-1.592 10.81l-79.724 59.263c-1.385 1.03-3.001 1.526-4.604 1.526z" fill="#6a61b2"/><path d="m236.758 108.645c-1.482 0-2.979-.426-4.301-1.313l-64.642-43.418c-3.542-2.379-4.485-7.18-2.106-10.722 2.379-3.543 7.181-4.483 10.721-2.106l64.642 43.418c3.542 2.379 4.485 7.18 2.106 10.722-1.491 2.22-3.934 3.419-6.42 3.419z" fill="#6a61b2"/><circle cx="236.765" cy="100.918" fill="#d6e0f4" r="16.483"/><path d="m157.975 167.907c-1.603 0-3.218-.496-4.604-1.526l-79.725-59.263c-3.425-2.545-4.137-7.385-1.592-10.81 2.547-3.426 7.385-4.138 10.811-1.592l79.725 59.263c3.425 2.545 4.137 7.385 1.592 10.81-1.517 2.041-3.847 3.118-6.207 3.118z" fill="#6a61b2"/><path d="m78.263 108.645c-2.488 0-4.93-1.199-6.421-3.42-2.379-3.542-1.437-8.343 2.106-10.722l64.642-43.418c3.542-2.38 8.343-1.436 10.721 2.106 2.379 3.542 1.437 8.343-2.106 10.722l-64.642 43.418c-1.322.889-2.82 1.314-4.3 1.314z" fill="#6a61b2"/><g fill="#d6e0f4"><circle cx="78.256" cy="100.918" r="16.483"/><path d="m194.504 150.899h-73.987c-7.509 0-13.597 6.087-13.597 13.597v17.826l49.461 7 51.72-7v-17.826c0-7.51-6.088-13.597-13.597-13.597z"/><path d="m398.55 150.899h-73.987c-7.509 0-13.597 6.087-13.597 13.597v17.826l50.061 6 51.12-6v-17.826c0-7.51-6.088-13.597-13.597-13.597z"/></g><path d="m173.923 424.219 7.956 23.901c1.401 4.209 5.339 7.048 9.775 7.048h128.694c4.436 0 8.374-2.839 9.775-7.048l7.956-23.901z" fill="#67b59f"/><path d="m67.889 182.322h376.221c24.277 0 43.957 19.68 43.957 43.957v3.238l-228.242 7-235.894-7v-3.238c.001-24.277 19.682-43.957 43.958-43.957z" fill="#eec06b"/><path d="m444.111 182.322h-34.204c24.277 0 43.957 19.68 43.957 43.957v3.238h34.204v-3.238c0-24.277-19.68-43.957-43.957-43.957z" fill="#e9a52d"/><g fill="#6a61b2"><circle cx="67.684" cy="438.539" r="23.688"/><circle cx="134.634" cy="438.539" r="23.688"/><circle cx="377.366" cy="438.539" r="23.688"/><circle cx="444.316" cy="438.539" r="23.688"/></g><path d="m0 244.97c0 8.534 6.918 15.453 15.453 15.453h481.095c8.534 0 15.453-6.918 15.453-15.453s-6.918-15.453-15.453-15.453h-481.095c-8.535 0-15.453 6.919-15.453 15.453z" fill="#77d1b3"/><path d="m496.547 229.517h-34.204c8.534 0 15.453 6.918 15.453 15.453 0 8.534-6.918 15.453-15.453 15.453h34.204c8.534 0 15.453-6.918 15.453-15.453 0-8.534-6.918-15.453-15.453-15.453z" fill="#67b59f"/><path d="m23.932 260.423v158.646c0 2.845 2.306 5.151 5.151 5.151h47.212l54.614-10 47.266 10h155.651l68.568-20 33.312 20h47.212c2.845 0 5.151-2.306 5.151-5.151v-158.646z" fill="#77d1b3"/><path d="m23.932 260.423h464.136v76.67h-464.136z" fill="#6a61b2"/><path d="m23.932 260.423h464.136v25.063h-464.136z" fill="#514898"/><path d="m256 344.819c-4.268 0-7.726-3.459-7.726-7.726v-76.669c0-4.267 3.459-7.726 7.726-7.726s7.726 3.459 7.726 7.726v76.669c0 4.266-3.458 7.726-7.726 7.726z" fill="#77d1b3"/><path d="m248.274 260.423v25.062h15.452v-25.062z" fill="#67b59f"/><path d="m76.295 260.423h101.88v163.796h-101.88z" fill="#eec06b"/><path d="m76.295 260.423h101.88v25.063h-101.88z" fill="#e9a52d"/><path d="m139.311 289.908h-24.152c-2.845 0-5.151 2.306-5.151 5.151v28.897c0 2.845 2.306 5.151 5.151 5.151h24.152c2.845 0 5.151-2.306 5.151-5.151v-28.897c0-2.844-2.307-5.151-5.151-5.151z" fill="#514898"/><path d="m333.825 260.423h101.88v163.796h-101.88z" fill="#eec06b"/><path d="m396.841 289.908h-24.152c-2.845 0-5.151 2.306-5.151 5.151v28.897c0 2.845 2.306 5.151 5.151 5.151h24.152c2.845 0 5.151-2.306 5.151-5.151v-28.897c0-2.844-2.306-5.151-5.151-5.151z" fill="#514898"/><path d="m333.825 260.423h101.88v25.063h-101.88z" fill="#e9a52d"/><path d="m214.745 65.227h-114.47c-4.268 0-7.726-3.459-7.726-7.726s3.459-7.726 7.726-7.726h114.47c4.268 0 7.726 3.459 7.726 7.726s-3.458 7.726-7.726 7.726z" fill="#514898"/></g></svg>